<svg xmlns="http://www.w3.org/2000/svg" xmlns:xlink="http://www.w3.org/1999/xlink" width="160" zoomAndPan="magnify" viewBox="0 0 120 30.000001" height="40" preserveAspectRatio="xMidYMid meet" version="1.2"><defs><clipPath id="d613f935bb"><path d="M 4.839844 9 L 23.710938 9 L 23.710938 23.816406 L 4.839844 23.816406 Z M 4.839844 9 "/></clipPath><clipPath id="4a205f8a52"><path d="M 10 4.945312 L 20 4.945312 L 20 15 L 10 15 Z M 10 4.945312 "/></clipPath></defs><g id="9728d92622"><g style="fill:#b476e5;fill-opacity:1;"><g transform="translate(27.793921, 17.78226)"><path style="stroke:none" d="M 4.34375 -7.578125 L 4.34375 -6.609375 C 4.34375 -6.503906 4.289062 -6.453125 4.1875 -6.453125 L 1.765625 -6.453125 L 1.765625 -4.515625 L 3.625 -4.515625 C 3.71875 -4.515625 3.765625 -4.460938 3.765625 -4.359375 L 3.765625 -3.390625 C 3.765625 -3.285156 3.71875 -3.234375 3.625 -3.234375 L 1.765625 -3.234375 L 1.765625 -1.28125 L 4.1875 -1.28125 C 4.289062 -1.28125 4.34375 -1.226562 4.34375 -1.125 L 4.34375 -0.15625 C 4.34375 -0.0507812 4.289062 0 4.1875 0 L 0.625 0 C 0.53125 0 0.484375 -0.0507812 0.484375 -0.15625 L 0.484375 -7.578125 C 0.484375 -7.679688 0.53125 -7.734375 0.625 -7.734375 L 4.1875 -7.734375 C 4.289062 -7.734375 4.34375 -7.679688 4.34375 -7.578125 Z M 4.34375 -7.578125 "/></g></g><g style="fill:#b476e5;fill-opacity:1;"><g transform="translate(32.814595, 17.78226)"><path style="stroke:none" d="M 3.453125 -7.734375 L 4.453125 -7.734375 C 4.554688 -7.734375 4.609375 -7.679688 4.609375 -7.578125 L 4.609375 -0.15625 C 4.609375 -0.0507812 4.554688 0 4.453125 0 L 3.5 0 C 3.40625 0 3.347656 -0.0390625 3.328125 -0.125 L 1.84375 -4.25 L 1.796875 -4.25 L 1.796875 -0.15625 C 1.796875 -0.0507812 1.742188 0 1.640625 0 L 0.640625 0 C 0.535156 0 0.484375 -0.0507812 0.484375 -0.15625 L 0.484375 -7.578125 C 0.484375 -7.679688 0.535156 -7.734375 0.640625 -7.734375 L 1.59375 -7.734375 C 1.6875 -7.734375 1.742188 -7.691406 1.765625 -7.609375 L 3.234375 -3.5 L 3.296875 -3.5 L 3.296875 -7.578125 C 3.296875 -7.679688 3.347656 -7.734375 3.453125 -7.734375 Z M 3.453125 -7.734375 "/></g></g><g style="fill:#b476e5;fill-opacity:1;"><g transform="translate(38.106129, 17.78226)"><path style="stroke:none" d="M 0.4375 -7.734375 L 4 -7.734375 C 4.101562 -7.734375 4.15625 -7.679688 4.15625 -7.578125 L 4.15625 -6.609375 C 4.15625 -6.503906 4.101562 -6.453125 4 -6.453125 L 2.875 -6.453125 L 2.875 -0.15625 C 2.875 -0.0507812 2.828125 0 2.734375 0 L 1.71875 0 C 1.613281 0 1.5625 -0.0507812 1.5625 -0.15625 L 1.5625 -6.453125 L 0.4375 -6.453125 C 0.34375 -6.453125 0.296875 -6.503906 0.296875 -6.609375 L 0.296875 -7.578125 C 0.296875 -7.679688 0.34375 -7.734375 0.4375 -7.734375 Z M 0.4375 -7.734375 "/></g></g><g style="fill:#b476e5;fill-opacity:1;"><g transform="translate(42.749536, 17.78226)"><path style="stroke:none" d="M 4.453125 -6.34375 L 4.453125 -3.984375 C 4.453125 -3.335938 4.21875 -2.910156 3.75 -2.703125 L 4.421875 -0.171875 C 4.453125 -0.0546875 4.40625 0 4.28125 0 L 3.28125 0 C 3.1875 0 3.128906 -0.046875 3.109375 -0.140625 L 2.46875 -2.59375 L 1.796875 -2.59375 L 1.796875 -0.15625 C 1.796875 -0.0507812 1.742188 0 1.640625 0 L 0.640625 0 C 0.535156 0 0.484375 -0.0507812 0.484375 -0.15625 L 0.484375 -7.578125 C 0.484375 -7.679688 0.535156 -7.734375 0.640625 -7.734375 L 3.0625 -7.734375 C 3.519531 -7.734375 3.863281 -7.613281 4.09375 -7.375 C 4.332031 -7.144531 4.453125 -6.800781 4.453125 -6.34375 Z M 1.796875 -3.875 L 2.75 -3.875 C 3.007812 -3.875 3.140625 -4 3.140625 -4.25 L 3.140625 -6.078125 C 3.140625 -6.328125 3.007812 -6.453125 2.75 -6.453125 L 1.796875 -6.453125 Z M 1.796875 -3.875 "/></g></g><g style="fill:#b476e5;fill-opacity:1;"><g transform="translate(47.886298, 17.78226)"><path style="stroke:none" d="M 4.34375 -7.578125 L 4.34375 -6.609375 C 4.34375 -6.503906 4.289062 -6.453125 4.1875 -6.453125 L 1.765625 -6.453125 L 1.765625 -4.515625 L 3.625 -4.515625 C 3.71875 -4.515625 3.765625 -4.460938 3.765625 -4.359375 L 3.765625 -3.390625 C 3.765625 -3.285156 3.71875 -3.234375 3.625 -3.234375 L 1.765625 -3.234375 L 1.765625 -1.28125 L 4.1875 -1.28125 C 4.289062 -1.28125 4.34375 -1.226562 4.34375 -1.125 L 4.34375 -0.15625 C 4.34375 -0.0507812 4.289062 0 4.1875 0 L 0.625 0 C 0.53125 0 0.484375 -0.0507812 0.484375 -0.15625 L 0.484375 -7.578125 C 0.484375 -7.679688 0.53125 -7.734375 0.625 -7.734375 L 4.1875 -7.734375 C 4.289062 -7.734375 4.34375 -7.679688 4.34375 -7.578125 Z M 4.34375 -7.578125 "/></g></g><g style="fill:#b476e5;fill-opacity:1;"><g transform="translate(52.906972, 17.78226)"><path style="stroke:none" d="M 0.4375 -7.734375 L 4 -7.734375 C 4.101562 -7.734375 4.15625 -7.679688 4.15625 -7.578125 L 4.15625 -6.609375 C 4.15625 -6.503906 4.101562 -6.453125 4 -6.453125 L 2.875 -6.453125 L 2.875 -0.15625 C 2.875 -0.0507812 2.828125 0 2.734375 0 L 1.71875 0 C 1.613281 0 1.5625 -0.0507812 1.5625 -0.15625 L 1.5625 -6.453125 L 0.4375 -6.453125 C 0.34375 -6.453125 0.296875 -6.503906 0.296875 -6.609375 L 0.296875 -7.578125 C 0.296875 -7.679688 0.34375 -7.734375 0.4375 -7.734375 Z M 0.4375 -7.734375 "/></g></g><g style="fill:#b476e5;fill-opacity:1;"><g transform="translate(57.550379, 17.78226)"><path style="stroke:none" d="M 0.640625 -7.734375 L 1.640625 -7.734375 C 1.742188 -7.734375 1.796875 -7.679688 1.796875 -7.578125 L 1.796875 -0.15625 C 1.796875 -0.0507812 1.742188 0 1.640625 0 L 0.640625 0 C 0.535156 0 0.484375 -0.0507812 0.484375 -0.15625 L 0.484375 -7.578125 C 0.484375 -7.679688 0.535156 -7.734375 0.640625 -7.734375 Z M 0.640625 -7.734375 "/></g></g><g style="fill:#b476e5;fill-opacity:1;"><g transform="translate(60.026899, 17.78226)"><path style="stroke:none" d="M 4.34375 -7.578125 L 4.34375 -6.609375 C 4.34375 -6.503906 4.289062 -6.453125 4.1875 -6.453125 L 1.765625 -6.453125 L 1.765625 -4.515625 L 3.625 -4.515625 C 3.71875 -4.515625 3.765625 -4.460938 3.765625 -4.359375 L 3.765625 -3.390625 C 3.765625 -3.285156 3.71875 -3.234375 3.625 -3.234375 L 1.765625 -3.234375 L 1.765625 -1.28125 L 4.1875 -1.28125 C 4.289062 -1.28125 4.34375 -1.226562 4.34375 -1.125 L 4.34375 -0.15625 C 4.34375 -0.0507812 4.289062 0 4.1875 0 L 0.625 0 C 0.53125 0 0.484375 -0.0507812 0.484375 -0.15625 L 0.484375 -7.578125 C 0.484375 -7.679688 0.53125 -7.734375 0.625 -7.734375 L 4.1875 -7.734375 C 4.289062 -7.734375 4.34375 -7.679688 4.34375 -7.578125 Z M 4.34375 -7.578125 "/></g></g><g style="fill:#b476e5;fill-opacity:1;"><g transform="translate(65.047574, 17.78226)"><path style="stroke:none" d="M 3.453125 -7.734375 L 4.453125 -7.734375 C 4.554688 -7.734375 4.609375 -7.679688 4.609375 -7.578125 L 4.609375 -0.15625 C 4.609375 -0.0507812 4.554688 0 4.453125 0 L 3.5 0 C 3.40625 0 3.347656 -0.0390625 3.328125 -0.125 L 1.84375 -4.25 L 1.796875 -4.25 L 1.796875 -0.15625 C 1.796875 -0.0507812 1.742188 0 1.640625 0 L 0.640625 0 C 0.535156 0 0.484375 -0.0507812 0.484375 -0.15625 L 0.484375 -7.578125 C 0.484375 -7.679688 0.535156 -7.734375 0.640625 -7.734375 L 1.59375 -7.734375 C 1.6875 -7.734375 1.742188 -7.691406 1.765625 -7.609375 L 3.234375 -3.5 L 3.296875 -3.5 L 3.296875 -7.578125 C 3.296875 -7.679688 3.347656 -7.734375 3.453125 -7.734375 Z M 3.453125 -7.734375 "/></g></g><g style="fill:#b476e5;fill-opacity:1;"><g transform="translate(70.339108, 17.78226)"><path style="stroke:none" d=""/></g></g><g style="fill:#b476e5;fill-opacity:1;"><g transform="translate(72.951052, 17.78226)"><path style="stroke:none" d="M 0.484375 -0.15625 L 0.484375 -7.578125 C 0.484375 -7.679688 0.535156 -7.734375 0.640625 -7.734375 L 2.953125 -7.734375 C 3.410156 -7.734375 3.757812 -7.613281 4 -7.375 C 4.238281 -7.144531 4.359375 -6.800781 4.359375 -6.34375 L 4.359375 -3.984375 C 4.359375 -3.535156 4.238281 -3.191406 4 -2.953125 C 3.757812 -2.710938 3.410156 -2.59375 2.953125 -2.59375 L 1.796875 -2.59375 L 1.796875 -0.15625 C 1.796875 -0.0507812 1.742188 0 1.640625 0 L 0.640625 0 C 0.535156 0 0.484375 -0.0507812 0.484375 -0.15625 Z M 1.796875 -3.875 L 2.65625 -3.875 C 2.90625 -3.875 3.03125 -4 3.03125 -4.25 L 3.03125 -6.078125 C 3.03125 -6.328125 2.90625 -6.453125 2.65625 -6.453125 L 1.796875 -6.453125 Z M 1.796875 -3.875 "/></g></g><g style="fill:#b476e5;fill-opacity:1;"><g transform="translate(77.981394, 17.78226)"><path style="stroke:none" d="M 4.453125 -6.34375 L 4.453125 -3.984375 C 4.453125 -3.335938 4.21875 -2.910156 3.75 -2.703125 L 4.421875 -0.171875 C 4.453125 -0.0546875 4.40625 0 4.28125 0 L 3.28125 0 C 3.1875 0 3.128906 -0.046875 3.109375 -0.140625 L 2.46875 -2.59375 L 1.796875 -2.59375 L 1.796875 -0.15625 C 1.796875 -0.0507812 1.742188 0 1.640625 0 L 0.640625 0 C 0.535156 0 0.484375 -0.0507812 0.484375 -0.15625 L 0.484375 -7.578125 C 0.484375 -7.679688 0.535156 -7.734375 0.640625 -7.734375 L 3.0625 -7.734375 C 3.519531 -7.734375 3.863281 -7.613281 4.09375 -7.375 C 4.332031 -7.144531 4.453125 -6.800781 4.453125 -6.34375 Z M 1.796875 -3.875 L 2.75 -3.875 C 3.007812 -3.875 3.140625 -4 3.140625 -4.25 L 3.140625 -6.078125 C 3.140625 -6.328125 3.007812 -6.453125 2.75 -6.453125 L 1.796875 -6.453125 Z M 1.796875 -3.875 "/></g></g><g style="fill:#b476e5;fill-opacity:1;"><g transform="translate(83.118156, 17.78226)"><path style="stroke:none" d="M 4.34375 -7.578125 L 4.34375 -6.609375 C 4.34375 -6.503906 4.289062 -6.453125 4.1875 -6.453125 L 1.765625 -6.453125 L 1.765625 -4.515625 L 3.625 -4.515625 C 3.71875 -4.515625 3.765625 -4.460938 3.765625 -4.359375 L 3.765625 -3.390625 C 3.765625 -3.285156 3.71875 -3.234375 3.625 -3.234375 L 1.765625 -3.234375 L 1.765625 -1.28125 L 4.1875 -1.28125 C 4.289062 -1.28125 4.34375 -1.226562 4.34375 -1.125 L 4.34375 -0.15625 C 4.34375 -0.0507812 4.289062 0 4.1875 0 L 0.625 0 C 0.53125 0 0.484375 -0.0507812 0.484375 -0.15625 L 0.484375 -7.578125 C 0.484375 -7.679688 0.53125 -7.734375 0.625 -7.734375 L 4.1875 -7.734375 C 4.289062 -7.734375 4.34375 -7.679688 4.34375 -7.578125 Z M 4.34375 -7.578125 "/></g></g><g style="fill:#b476e5;fill-opacity:1;"><g transform="translate(88.138831, 17.78226)"><path style="stroke:none" d="M 3.859375 -7.734375 L 4.78125 -7.734375 C 4.925781 -7.734375 4.984375 -7.664062 4.953125 -7.53125 L 3.3125 -0.171875 C 3.289062 -0.0546875 3.222656 0 3.109375 0 L 2.140625 0 C 2.023438 0 1.953125 -0.0546875 1.921875 -0.171875 L 0.296875 -7.53125 C 0.265625 -7.664062 0.320312 -7.734375 0.46875 -7.734375 L 1.390625 -7.734375 C 1.503906 -7.734375 1.578125 -7.675781 1.609375 -7.5625 L 2.625 -2.375 L 3.640625 -7.5625 C 3.671875 -7.675781 3.742188 -7.734375 3.859375 -7.734375 Z M 3.859375 -7.734375 "/></g></g><g style="fill:#b476e5;fill-opacity:1;"><g transform="translate(93.585148, 17.78226)"><path style="stroke:none" d="M 4.34375 -7.578125 L 4.34375 -6.609375 C 4.34375 -6.503906 4.289062 -6.453125 4.1875 -6.453125 L 1.765625 -6.453125 L 1.765625 -4.515625 L 3.625 -4.515625 C 3.71875 -4.515625 3.765625 -4.460938 3.765625 -4.359375 L 3.765625 -3.390625 C 3.765625 -3.285156 3.71875 -3.234375 3.625 -3.234375 L 1.765625 -3.234375 L 1.765625 -1.28125 L 4.1875 -1.28125 C 4.289062 -1.28125 4.34375 -1.226562 4.34375 -1.125 L 4.34375 -0.15625 C 4.34375 -0.0507812 4.289062 0 4.1875 0 L 0.625 0 C 0.53125 0 0.484375 -0.0507812 0.484375 -0.15625 L 0.484375 -7.578125 C 0.484375 -7.679688 0.53125 -7.734375 0.625 -7.734375 L 4.1875 -7.734375 C 4.289062 -7.734375 4.34375 -7.679688 4.34375 -7.578125 Z M 4.34375 -7.578125 "/></g></g><g style="fill:#b476e5;fill-opacity:1;"><g transform="translate(98.605822, 17.78226)"><path style="stroke:none" d="M 3.453125 -7.734375 L 4.453125 -7.734375 C 4.554688 -7.734375 4.609375 -7.679688 4.609375 -7.578125 L 4.609375 -0.15625 C 4.609375 -0.0507812 4.554688 0 4.453125 0 L 3.5 0 C 3.40625 0 3.347656 -0.0390625 3.328125 -0.125 L 1.84375 -4.25 L 1.796875 -4.25 L 1.796875 -0.15625 C 1.796875 -0.0507812 1.742188 0 1.640625 0 L 0.640625 0 C 0.535156 0 0.484375 -0.0507812 0.484375 -0.15625 L 0.484375 -7.578125 C 0.484375 -7.679688 0.535156 -7.734375 0.640625 -7.734375 L 1.59375 -7.734375 C 1.6875 -7.734375 1.742188 -7.691406 1.765625 -7.609375 L 3.234375 -3.5 L 3.296875 -3.5 L 3.296875 -7.578125 C 3.296875 -7.679688 3.347656 -7.734375 3.453125 -7.734375 Z M 3.453125 -7.734375 "/></g></g><g style="fill:#b476e5;fill-opacity:1;"><g transform="translate(103.897356, 17.78226)"><path style="stroke:none" d="M 0.4375 -7.734375 L 4 -7.734375 C 4.101562 -7.734375 4.15625 -7.679688 4.15625 -7.578125 L 4.15625 -6.609375 C 4.15625 -6.503906 4.101562 -6.453125 4 -6.453125 L 2.875 -6.453125 L 2.875 -0.15625 C 2.875 -0.0507812 2.828125 0 2.734375 0 L 1.71875 0 C 1.613281 0 1.5625 -0.0507812 1.5625 -0.15625 L 1.5625 -6.453125 L 0.4375 -6.453125 C 0.34375 -6.453125 0.296875 -6.503906 0.296875 -6.609375 L 0.296875 -7.578125 C 0.296875 -7.679688 0.34375 -7.734375 0.4375 -7.734375 Z M 0.4375 -7.734375 "/></g></g><g style="fill:#b476e5;fill-opacity:1;"><g transform="translate(108.540763, 17.78226)"><path style="stroke:none" d="M 0.640625 -7.734375 L 1.640625 -7.734375 C 1.742188 -7.734375 1.796875 -7.679688 1.796875 -7.578125 L 1.796875 -0.15625 C 1.796875 -0.0507812 1.742188 0 1.640625 0 L 0.640625 0 C 0.535156 0 0.484375 -0.0507812 0.484375 -0.15625 L 0.484375 -7.578125 C 0.484375 -7.679688 0.535156 -7.734375 0.640625 -7.734375 Z M 0.640625 -7.734375 "/></g></g><g style="fill:#b476e5;fill-opacity:1;"><g transform="translate(111.017283, 17.78226)"><path style="stroke:none" d="M 4.359375 -7.578125 L 4.359375 -6.609375 C 4.359375 -6.503906 4.304688 -6.453125 4.203125 -6.453125 L 1.796875 -6.453125 L 1.796875 -4.515625 L 3.625 -4.515625 C 3.71875 -4.515625 3.765625 -4.460938 3.765625 -4.359375 L 3.765625 -3.390625 C 3.765625 -3.285156 3.71875 -3.234375 3.625 -3.234375 L 1.796875 -3.234375 L 1.796875 -0.15625 C 1.796875 -0.0507812 1.742188 0 1.640625 0 L 0.640625 0 C 0.535156 0 0.484375 -0.0507812 0.484375 -0.15625 L 0.484375 -7.578125 C 0.484375 -7.679688 0.535156 -7.734375 0.640625 -7.734375 L 4.203125 -7.734375 C 4.304688 -7.734375 4.359375 -7.679688 4.359375 -7.578125 Z M 4.359375 -7.578125 "/></g></g><g clip-rule="nonzero" clip-path="url(#d613f935bb)"><path style=" stroke:none;fill-rule:nonzero;fill:#b476e5;fill-opacity:1;" d="M 22.347656 9.214844 L 20.242188 9.214844 C 20.339844 9.625 20.398438 10.046875 20.414062 10.480469 L 21.863281 10.480469 C 21.960938 10.480469 22.039062 10.558594 22.039062 10.65625 L 22.039062 19.832031 C 22.039062 19.929688 21.960938 20.007812 21.863281 20.007812 L 6.277344 20.007812 C 6.179688 20.007812 6.101562 19.929688 6.101562 19.832031 L 6.101562 10.65625 C 6.101562 10.558594 6.179688 10.480469 6.277344 10.480469 L 7.726562 10.480469 C 7.742188 10.050781 7.800781 9.628906 7.898438 9.214844 L 5.796875 9.214844 C 5.265625 9.214844 4.835938 9.621094 4.835938 10.121094 L 4.835938 20.367188 C 4.835938 20.867188 5.265625 21.269531 5.796875 21.269531 L 12.847656 21.269531 L 12.28125 23.222656 L 11.007812 23.222656 C 10.84375 23.222656 10.710938 23.355469 10.710938 23.519531 C 10.710938 23.679688 10.84375 23.8125 11.007812 23.8125 L 17.136719 23.8125 C 17.300781 23.8125 17.429688 23.679688 17.429688 23.519531 C 17.429688 23.355469 17.300781 23.222656 17.136719 23.222656 L 15.863281 23.222656 L 15.292969 21.269531 L 22.347656 21.269531 C 22.875 21.269531 23.304688 20.867188 23.304688 20.367188 L 23.304688 10.121094 C 23.304688 9.621094 22.875 9.214844 22.347656 9.214844 Z M 22.347656 9.214844 "/></g><path style=" stroke:none;fill-rule:nonzero;fill:#b476e5;fill-opacity:1;" d="M 8.589844 8.5 C 8.644531 8.5 8.703125 8.488281 8.753906 8.460938 L 8.773438 8.453125 C 8.46875 9.160156 8.3125 9.925781 8.3125 10.714844 C 8.3125 13.894531 10.894531 16.480469 14.070312 16.480469 C 15.28125 16.480469 16.441406 16.109375 17.421875 15.40625 C 17.582031 15.289062 17.617188 15.066406 17.503906 14.902344 C 17.386719 14.742188 17.160156 14.703125 17 14.820312 C 16.144531 15.433594 15.128906 15.757812 14.070312 15.757812 C 11.292969 15.757812 9.03125 13.496094 9.03125 10.714844 C 9.03125 10.054688 9.15625 9.414062 9.402344 8.816406 L 9.402344 8.839844 C 9.417969 9.039062 9.589844 9.1875 9.789062 9.175781 C 9.988281 9.160156 10.136719 8.988281 10.121094 8.789062 L 10.035156 7.550781 C 10.019531 7.292969 9.742188 7.136719 9.511719 7.257812 L 8.421875 7.820312 C 8.246094 7.914062 8.175781 8.128906 8.269531 8.308594 C 8.332031 8.429688 8.460938 8.5 8.589844 8.5 Z M 8.589844 8.5 "/><g clip-rule="nonzero" clip-path="url(#4a205f8a52)"><path style=" stroke:none;fill-rule:nonzero;fill:#b476e5;fill-opacity:1;" d="M 11.144531 6.613281 C 12 6 13.011719 5.671875 14.070312 5.671875 C 16.851562 5.671875 19.113281 7.9375 19.113281 10.714844 C 19.113281 11.375 18.984375 12.019531 18.742188 12.617188 L 18.738281 12.59375 C 18.726562 12.394531 18.554688 12.242188 18.355469 12.257812 C 18.15625 12.269531 18.007812 12.445312 18.019531 12.640625 L 18.105469 13.882812 C 18.125 14.140625 18.402344 14.292969 18.632812 14.175781 L 19.71875 13.609375 C 19.898438 13.519531 19.964844 13.300781 19.875 13.125 C 19.78125 12.949219 19.566406 12.878906 19.386719 12.972656 L 19.371094 12.980469 C 19.675781 12.269531 19.832031 11.503906 19.832031 10.714844 C 19.832031 7.539062 17.246094 4.953125 14.070312 4.953125 C 12.859375 4.953125 11.703125 5.324219 10.722656 6.027344 C 10.5625 6.140625 10.523438 6.367188 10.640625 6.527344 C 10.757812 6.691406 10.980469 6.726562 11.144531 6.613281 Z M 11.144531 6.613281 "/></g><path style=" stroke:none;fill-rule:nonzero;fill:#b476e5;fill-opacity:1;" d="M 10.726562 11.417969 C 10.664062 11.429688 10.609375 11.46875 10.574219 11.523438 C 10.542969 11.578125 10.53125 11.644531 10.550781 11.707031 C 10.628906 11.984375 10.738281 12.25 10.878906 12.5 C 10.910156 12.554688 10.964844 12.597656 11.027344 12.613281 C 11.089844 12.625 11.15625 12.613281 11.207031 12.578125 C 11.492188 12.386719 11.875 12.425781 12.117188 12.667969 C 12.359375 12.910156 12.394531 13.289062 12.207031 13.574219 C 12.167969 13.625 12.15625 13.691406 12.171875 13.753906 C 12.1875 13.816406 12.226562 13.871094 12.285156 13.902344 C 12.535156 14.042969 12.800781 14.152344 13.078125 14.230469 C 13.097656 14.234375 13.121094 14.238281 13.140625 14.238281 C 13.183594 14.238281 13.226562 14.226562 13.261719 14.203125 C 13.316406 14.171875 13.355469 14.117188 13.367188 14.054688 C 13.433594 13.71875 13.730469 13.476562 14.070312 13.476562 C 14.414062 13.476562 14.710938 13.71875 14.777344 14.054688 C 14.789062 14.117188 14.828125 14.171875 14.882812 14.203125 C 14.9375 14.238281 15.003906 14.246094 15.066406 14.230469 C 15.34375 14.152344 15.609375 14.042969 15.859375 13.902344 C 15.917969 13.871094 15.957031 13.816406 15.972656 13.753906 C 15.984375 13.691406 15.972656 13.625 15.9375 13.574219 C 15.746094 13.289062 15.785156 12.910156 16.027344 12.667969 C 16.269531 12.425781 16.652344 12.386719 16.9375 12.578125 C 16.988281 12.613281 17.054688 12.625 17.117188 12.613281 C 17.179688 12.597656 17.234375 12.554688 17.265625 12.5 C 17.40625 12.25 17.515625 11.984375 17.59375 11.707031 C 17.609375 11.644531 17.601562 11.578125 17.570312 11.523438 C 17.535156 11.46875 17.480469 11.429688 17.417969 11.417969 C 17.082031 11.351562 16.835938 11.058594 16.835938 10.714844 C 16.835938 10.375 17.082031 10.078125 17.417969 10.011719 C 17.480469 10 17.535156 9.960938 17.570312 9.90625 C 17.601562 9.851562 17.609375 9.785156 17.59375 9.726562 C 17.515625 9.449219 17.40625 9.183594 17.265625 8.929688 C 17.234375 8.875 17.179688 8.835938 17.117188 8.820312 C 17.054688 8.804688 16.988281 8.816406 16.9375 8.851562 C 16.652344 9.042969 16.269531 9.007812 16.027344 8.765625 C 15.785156 8.523438 15.746094 8.140625 15.9375 7.859375 C 15.972656 7.804688 15.984375 7.738281 15.972656 7.675781 C 15.957031 7.613281 15.917969 7.5625 15.859375 7.53125 C 15.609375 7.390625 15.339844 7.277344 15.066406 7.203125 C 15.003906 7.183594 14.9375 7.195312 14.882812 7.226562 C 14.828125 7.261719 14.789062 7.316406 14.777344 7.378906 C 14.710938 7.714844 14.414062 7.957031 14.070312 7.957031 C 13.730469 7.957031 13.433594 7.714844 13.367188 7.378906 C 13.355469 7.316406 13.316406 7.261719 13.261719 7.226562 C 13.207031 7.195312 13.140625 7.183594 13.078125 7.203125 C 12.800781 7.277344 12.535156 7.390625 12.28125 7.53125 C 12.226562 7.5625 12.1875 7.613281 12.171875 7.675781 C 12.15625 7.738281 12.167969 7.804688 12.207031 7.859375 C 12.394531 8.140625 12.359375 8.523438 12.117188 8.765625 C 11.875 9.007812 11.492188 9.042969 11.207031 8.851562 C 11.15625 8.816406 11.089844 8.804688 11.027344 8.820312 C 10.964844 8.835938 10.910156 8.875 10.878906 8.929688 C 10.738281 9.179688 10.628906 9.449219 10.550781 9.726562 C 10.53125 9.785156 10.542969 9.851562 10.574219 9.90625 C 10.609375 9.960938 10.664062 10 10.726562 10.011719 C 11.0625 10.078125 11.304688 10.375 11.304688 10.714844 C 11.304688 11.058594 11.0625 11.351562 10.726562 11.417969 Z M 14.070312 9.253906 C 14.878906 9.253906 15.539062 9.910156 15.539062 10.714844 C 15.539062 11.523438 14.878906 12.179688 14.070312 12.179688 C 13.261719 12.179688 12.605469 11.523438 12.605469 10.714844 C 12.605469 9.910156 13.261719 9.253906 14.070312 9.253906 Z M 14.070312 9.253906 "/><path style=" stroke:none;fill-rule:nonzero;fill:#b476e5;fill-opacity:1;" d="M 14.949219 10.714844 C 14.949219 11.199219 14.554688 11.589844 14.070312 11.589844 C 13.585938 11.589844 13.195312 11.199219 13.195312 10.714844 C 13.195312 10.234375 13.585938 9.839844 14.070312 9.839844 C 14.554688 9.839844 14.949219 10.234375 14.949219 10.714844 Z M 14.949219 10.714844 "/></g></svg>