<svg xmlns="http://www.w3.org/2000/svg" xmlns:xlink="http://www.w3.org/1999/xlink" width="160" zoomAndPan="magnify" viewBox="0 0 120 30.000001" height="40" preserveAspectRatio="xMidYMid meet" version="1.2"><defs><clipPath id="549e34d0fd"><path d="M 6 7.007812 L 25 7.007812 L 25 20 L 6 20 Z M 6 7.007812 "/></clipPath><clipPath id="0af016acf6"><path d="M 3.476562 20 L 27.429688 20 L 27.429688 22 L 3.476562 22 Z M 3.476562 20 "/></clipPath><clipPath id="b8063258b4"><path d="M 3.476562 18 L 27.429688 18 L 27.429688 22 L 3.476562 22 Z M 3.476562 18 "/></clipPath><clipPath id="47066d54b6"><path d="M 13 7.007812 L 17 7.007812 L 17 9 L 13 9 Z M 13 7.007812 "/></clipPath></defs><g id="bbb25d725f"><g style="fill:#b476e5;fill-opacity:1;"><g transform="translate(27.213276, 17.78226)"><path style="stroke:none" d="M 0.46875 -1.359375 L 0.46875 -6.21875 C 0.46875 -6.664062 0.582031 -7.003906 0.8125 -7.234375 C 1.050781 -7.472656 1.394531 -7.59375 1.84375 -7.59375 L 2.90625 -7.59375 C 3.351562 -7.59375 3.691406 -7.472656 3.921875 -7.234375 C 4.148438 -7.003906 4.265625 -6.664062 4.265625 -6.21875 L 4.265625 -1.359375 C 4.265625 -0.921875 4.148438 -0.582031 3.921875 -0.34375 C 3.691406 -0.113281 3.351562 0 2.90625 0 L 1.84375 0 C 1.394531 0 1.050781 -0.113281 0.8125 -0.34375 C 0.582031 -0.582031 0.46875 -0.921875 0.46875 -1.359375 Z M 2.109375 -1.21875 L 2.671875 -1.21875 C 2.921875 -1.21875 3.046875 -1.347656 3.046875 -1.609375 L 3.046875 -5.984375 C 3.046875 -6.234375 2.921875 -6.359375 2.671875 -6.359375 L 2.109375 -6.359375 C 1.859375 -6.359375 1.734375 -6.234375 1.734375 -5.984375 L 1.734375 -1.609375 C 1.734375 -1.347656 1.859375 -1.21875 2.109375 -1.21875 Z M 2.109375 -1.21875 "/></g></g><g style="fill:#b476e5;fill-opacity:1;"><g transform="translate(32.137731, 17.78226)"><path style="stroke:none" d="M 4.375 -6.21875 L 4.375 -3.90625 C 4.375 -3.269531 4.144531 -2.851562 3.6875 -2.65625 L 4.328125 -0.171875 C 4.359375 -0.0546875 4.316406 0 4.203125 0 L 3.21875 0 C 3.125 0 3.066406 -0.0390625 3.046875 -0.125 L 2.421875 -2.546875 L 1.765625 -2.546875 L 1.765625 -0.15625 C 1.765625 -0.0507812 1.710938 0 1.609375 0 L 0.625 0 C 0.519531 0 0.46875 -0.0507812 0.46875 -0.15625 L 0.46875 -7.4375 C 0.46875 -7.539062 0.519531 -7.59375 0.625 -7.59375 L 3 -7.59375 C 3.457031 -7.59375 3.800781 -7.472656 4.03125 -7.234375 C 4.257812 -7.003906 4.375 -6.664062 4.375 -6.21875 Z M 1.765625 -3.796875 L 2.703125 -3.796875 C 2.953125 -3.796875 3.078125 -3.921875 3.078125 -4.171875 L 3.078125 -5.953125 C 3.078125 -6.203125 2.953125 -6.328125 2.703125 -6.328125 L 1.765625 -6.328125 Z M 1.765625 -3.796875 "/></g></g><g style="fill:#b476e5;fill-opacity:1;"><g transform="translate(37.166357, 17.78226)"><path style="stroke:none" d="M 0.46875 -0.15625 L 0.46875 -7.4375 C 0.46875 -7.539062 0.519531 -7.59375 0.625 -7.59375 L 2.90625 -7.59375 C 3.351562 -7.59375 3.691406 -7.472656 3.921875 -7.234375 C 4.148438 -7.003906 4.265625 -6.664062 4.265625 -6.21875 L 4.265625 -1.359375 C 4.265625 -0.921875 4.148438 -0.582031 3.921875 -0.34375 C 3.691406 -0.113281 3.351562 0 2.90625 0 L 0.625 0 C 0.519531 0 0.46875 -0.0507812 0.46875 -0.15625 Z M 1.765625 -1.25 L 2.640625 -1.25 C 2.890625 -1.25 3.015625 -1.375 3.015625 -1.625 L 3.015625 -5.953125 C 3.015625 -6.203125 2.890625 -6.328125 2.640625 -6.328125 L 1.765625 -6.328125 Z M 1.765625 -1.25 "/></g></g><g style="fill:#b476e5;fill-opacity:1;"><g transform="translate(42.090813, 17.78226)"><path style="stroke:none" d="M 0.625 -7.59375 L 1.609375 -7.59375 C 1.710938 -7.59375 1.765625 -7.539062 1.765625 -7.4375 L 1.765625 -0.15625 C 1.765625 -0.0507812 1.710938 0 1.609375 0 L 0.625 0 C 0.519531 0 0.46875 -0.0507812 0.46875 -0.15625 L 0.46875 -7.4375 C 0.46875 -7.539062 0.519531 -7.59375 0.625 -7.59375 Z M 0.625 -7.59375 "/></g></g><g style="fill:#b476e5;fill-opacity:1;"><g transform="translate(44.515303, 17.78226)"><path style="stroke:none" d="M 3.390625 -7.59375 L 4.375 -7.59375 C 4.476562 -7.59375 4.53125 -7.539062 4.53125 -7.4375 L 4.53125 -0.15625 C 4.53125 -0.0507812 4.476562 0 4.375 0 L 3.4375 0 C 3.34375 0 3.285156 -0.0390625 3.265625 -0.125 L 1.8125 -4.171875 L 1.765625 -4.171875 L 1.765625 -0.15625 C 1.765625 -0.0507812 1.710938 0 1.609375 0 L 0.625 0 C 0.519531 0 0.46875 -0.0507812 0.46875 -0.15625 L 0.46875 -7.4375 C 0.46875 -7.539062 0.519531 -7.59375 0.625 -7.59375 L 1.5625 -7.59375 C 1.65625 -7.59375 1.710938 -7.550781 1.734375 -7.46875 L 3.171875 -3.4375 L 3.234375 -3.4375 L 3.234375 -7.4375 C 3.234375 -7.539062 3.285156 -7.59375 3.390625 -7.59375 Z M 3.390625 -7.59375 "/></g></g><g style="fill:#b476e5;fill-opacity:1;"><g transform="translate(49.695445, 17.78226)"><path style="stroke:none" d="M 5.046875 0 L 4.046875 0 C 3.960938 0 3.910156 -0.0390625 3.890625 -0.125 L 3.625 -1.515625 L 1.9375 -1.515625 L 1.671875 -0.125 C 1.660156 -0.0390625 1.613281 0 1.53125 0 L 0.515625 0 C 0.398438 0 0.359375 -0.0507812 0.390625 -0.15625 L 1.96875 -7.453125 C 1.976562 -7.546875 2.03125 -7.59375 2.125 -7.59375 L 3.4375 -7.59375 C 3.53125 -7.59375 3.585938 -7.546875 3.609375 -7.453125 L 5.171875 -0.15625 C 5.191406 -0.0507812 5.148438 0 5.046875 0 Z M 3.390625 -2.625 L 2.78125 -5.921875 L 2.171875 -2.625 Z M 3.390625 -2.625 "/></g></g><g style="fill:#b476e5;fill-opacity:1;"><g transform="translate(55.434284, 17.78226)"><path style="stroke:none" d="M 0.4375 -7.59375 L 3.921875 -7.59375 C 4.023438 -7.59375 4.078125 -7.539062 4.078125 -7.4375 L 4.078125 -6.484375 C 4.078125 -6.378906 4.023438 -6.328125 3.921875 -6.328125 L 2.828125 -6.328125 L 2.828125 -0.15625 C 2.828125 -0.0507812 2.773438 0 2.671875 0 L 1.6875 0 C 1.582031 0 1.53125 -0.0507812 1.53125 -0.15625 L 1.53125 -6.328125 L 0.4375 -6.328125 C 0.332031 -6.328125 0.28125 -6.378906 0.28125 -6.484375 L 0.28125 -7.4375 C 0.28125 -7.539062 0.332031 -7.59375 0.4375 -7.59375 Z M 0.4375 -7.59375 "/></g></g><g style="fill:#b476e5;fill-opacity:1;"><g transform="translate(59.979966, 17.78226)"><path style="stroke:none" d="M 4.265625 -7.4375 L 4.265625 -6.484375 C 4.265625 -6.378906 4.210938 -6.328125 4.109375 -6.328125 L 1.734375 -6.328125 L 1.734375 -4.421875 L 3.546875 -4.421875 C 3.648438 -4.421875 3.703125 -4.367188 3.703125 -4.265625 L 3.703125 -3.328125 C 3.703125 -3.222656 3.648438 -3.171875 3.546875 -3.171875 L 1.734375 -3.171875 L 1.734375 -1.25 L 4.109375 -1.25 C 4.210938 -1.25 4.265625 -1.195312 4.265625 -1.09375 L 4.265625 -0.15625 C 4.265625 -0.0507812 4.210938 0 4.109375 0 L 0.609375 0 C 0.515625 0 0.46875 -0.0507812 0.46875 -0.15625 L 0.46875 -7.4375 C 0.46875 -7.539062 0.515625 -7.59375 0.609375 -7.59375 L 4.109375 -7.59375 C 4.210938 -7.59375 4.265625 -7.539062 4.265625 -7.4375 Z M 4.265625 -7.4375 "/></g></g><g style="fill:#b476e5;fill-opacity:1;"><g transform="translate(64.894952, 17.78226)"><path style="stroke:none" d="M 3.203125 -7.59375 L 4.078125 -7.59375 C 4.128906 -7.59375 4.171875 -7.570312 4.203125 -7.53125 C 4.242188 -7.488281 4.265625 -7.441406 4.265625 -7.390625 L 4.265625 -1.359375 C 4.265625 -0.921875 4.148438 -0.582031 3.921875 -0.34375 C 3.691406 -0.113281 3.351562 0 2.90625 0 L 1.84375 0 C 1.394531 0 1.050781 -0.113281 0.8125 -0.34375 C 0.582031 -0.582031 0.46875 -0.921875 0.46875 -1.359375 L 0.46875 -7.390625 C 0.46875 -7.441406 0.488281 -7.488281 0.53125 -7.53125 C 0.570312 -7.570312 0.613281 -7.59375 0.65625 -7.59375 L 1.578125 -7.59375 C 1.628906 -7.59375 1.671875 -7.570312 1.703125 -7.53125 C 1.742188 -7.488281 1.765625 -7.441406 1.765625 -7.390625 L 1.765625 -1.625 C 1.765625 -1.375 1.890625 -1.25 2.140625 -1.25 L 2.640625 -1.25 C 2.890625 -1.25 3.015625 -1.375 3.015625 -1.625 L 3.015625 -7.390625 C 3.015625 -7.441406 3.03125 -7.488281 3.0625 -7.53125 C 3.101562 -7.570312 3.148438 -7.59375 3.203125 -7.59375 Z M 3.203125 -7.59375 "/></g></g><g style="fill:#b476e5;fill-opacity:1;"><g transform="translate(69.819408, 17.78226)"><path style="stroke:none" d="M 4.375 -6.21875 L 4.375 -3.90625 C 4.375 -3.269531 4.144531 -2.851562 3.6875 -2.65625 L 4.328125 -0.171875 C 4.359375 -0.0546875 4.316406 0 4.203125 0 L 3.21875 0 C 3.125 0 3.066406 -0.0390625 3.046875 -0.125 L 2.421875 -2.546875 L 1.765625 -2.546875 L 1.765625 -0.15625 C 1.765625 -0.0507812 1.710938 0 1.609375 0 L 0.625 0 C 0.519531 0 0.46875 -0.0507812 0.46875 -0.15625 L 0.46875 -7.4375 C 0.46875 -7.539062 0.519531 -7.59375 0.625 -7.59375 L 3 -7.59375 C 3.457031 -7.59375 3.800781 -7.472656 4.03125 -7.234375 C 4.257812 -7.003906 4.375 -6.664062 4.375 -6.21875 Z M 1.765625 -3.796875 L 2.703125 -3.796875 C 2.953125 -3.796875 3.078125 -3.921875 3.078125 -4.171875 L 3.078125 -5.953125 C 3.078125 -6.203125 2.953125 -6.328125 2.703125 -6.328125 L 1.765625 -6.328125 Z M 1.765625 -3.796875 "/></g></g><g style="fill:#b476e5;fill-opacity:1;"><g transform="translate(74.848034, 17.78226)"><path style="stroke:none" d=""/></g></g><g style="fill:#b476e5;fill-opacity:1;"><g transform="translate(77.405102, 17.78226)"><path style="stroke:none" d="M 0.46875 -0.15625 L 0.46875 -7.4375 C 0.46875 -7.539062 0.519531 -7.59375 0.625 -7.59375 L 2.90625 -7.59375 C 3.351562 -7.59375 3.691406 -7.472656 3.921875 -7.234375 C 4.148438 -7.003906 4.265625 -6.664062 4.265625 -6.21875 L 4.265625 -3.90625 C 4.265625 -3.46875 4.148438 -3.128906 3.921875 -2.890625 C 3.691406 -2.660156 3.351562 -2.546875 2.90625 -2.546875 L 1.765625 -2.546875 L 1.765625 -0.15625 C 1.765625 -0.0507812 1.710938 0 1.609375 0 L 0.625 0 C 0.519531 0 0.46875 -0.0507812 0.46875 -0.15625 Z M 1.765625 -3.796875 L 2.59375 -3.796875 C 2.851562 -3.796875 2.984375 -3.921875 2.984375 -4.171875 L 2.984375 -5.953125 C 2.984375 -6.203125 2.851562 -6.328125 2.59375 -6.328125 L 1.765625 -6.328125 Z M 1.765625 -3.796875 "/></g></g><g style="fill:#b476e5;fill-opacity:1;"><g transform="translate(82.329557, 17.78226)"><path style="stroke:none" d="M 0.46875 -1.359375 L 0.46875 -6.21875 C 0.46875 -6.664062 0.582031 -7.003906 0.8125 -7.234375 C 1.050781 -7.472656 1.394531 -7.59375 1.84375 -7.59375 L 2.90625 -7.59375 C 3.351562 -7.59375 3.691406 -7.472656 3.921875 -7.234375 C 4.148438 -7.003906 4.265625 -6.664062 4.265625 -6.21875 L 4.265625 -1.359375 C 4.265625 -0.921875 4.148438 -0.582031 3.921875 -0.34375 C 3.691406 -0.113281 3.351562 0 2.90625 0 L 1.84375 0 C 1.394531 0 1.050781 -0.113281 0.8125 -0.34375 C 0.582031 -0.582031 0.46875 -0.921875 0.46875 -1.359375 Z M 2.109375 -1.21875 L 2.671875 -1.21875 C 2.921875 -1.21875 3.046875 -1.347656 3.046875 -1.609375 L 3.046875 -5.984375 C 3.046875 -6.234375 2.921875 -6.359375 2.671875 -6.359375 L 2.109375 -6.359375 C 1.859375 -6.359375 1.734375 -6.234375 1.734375 -5.984375 L 1.734375 -1.609375 C 1.734375 -1.347656 1.859375 -1.21875 2.109375 -1.21875 Z M 2.109375 -1.21875 "/></g></g><g style="fill:#b476e5;fill-opacity:1;"><g transform="translate(87.254012, 17.78226)"><path style="stroke:none" d="M 4.375 -6.21875 L 4.375 -3.90625 C 4.375 -3.269531 4.144531 -2.851562 3.6875 -2.65625 L 4.328125 -0.171875 C 4.359375 -0.0546875 4.316406 0 4.203125 0 L 3.21875 0 C 3.125 0 3.066406 -0.0390625 3.046875 -0.125 L 2.421875 -2.546875 L 1.765625 -2.546875 L 1.765625 -0.15625 C 1.765625 -0.0507812 1.710938 0 1.609375 0 L 0.625 0 C 0.519531 0 0.46875 -0.0507812 0.46875 -0.15625 L 0.46875 -7.4375 C 0.46875 -7.539062 0.519531 -7.59375 0.625 -7.59375 L 3 -7.59375 C 3.457031 -7.59375 3.800781 -7.472656 4.03125 -7.234375 C 4.257812 -7.003906 4.375 -6.664062 4.375 -6.21875 Z M 1.765625 -3.796875 L 2.703125 -3.796875 C 2.953125 -3.796875 3.078125 -3.921875 3.078125 -4.171875 L 3.078125 -5.953125 C 3.078125 -6.203125 2.953125 -6.328125 2.703125 -6.328125 L 1.765625 -6.328125 Z M 1.765625 -3.796875 "/></g></g><g style="fill:#b476e5;fill-opacity:1;"><g transform="translate(92.282639, 17.78226)"><path style="stroke:none" d="M 0.4375 -7.59375 L 3.921875 -7.59375 C 4.023438 -7.59375 4.078125 -7.539062 4.078125 -7.4375 L 4.078125 -6.484375 C 4.078125 -6.378906 4.023438 -6.328125 3.921875 -6.328125 L 2.828125 -6.328125 L 2.828125 -0.15625 C 2.828125 -0.0507812 2.773438 0 2.671875 0 L 1.6875 0 C 1.582031 0 1.53125 -0.0507812 1.53125 -0.15625 L 1.53125 -6.328125 L 0.4375 -6.328125 C 0.332031 -6.328125 0.28125 -6.378906 0.28125 -6.484375 L 0.28125 -7.4375 C 0.28125 -7.539062 0.332031 -7.59375 0.4375 -7.59375 Z M 0.4375 -7.59375 "/></g></g><g style="fill:#b476e5;fill-opacity:1;"><g transform="translate(96.828321, 17.78226)"><path style="stroke:none" d="M 5.046875 0 L 4.046875 0 C 3.960938 0 3.910156 -0.0390625 3.890625 -0.125 L 3.625 -1.515625 L 1.9375 -1.515625 L 1.671875 -0.125 C 1.660156 -0.0390625 1.613281 0 1.53125 0 L 0.515625 0 C 0.398438 0 0.359375 -0.0507812 0.390625 -0.15625 L 1.96875 -7.453125 C 1.976562 -7.546875 2.03125 -7.59375 2.125 -7.59375 L 3.4375 -7.59375 C 3.53125 -7.59375 3.585938 -7.546875 3.609375 -7.453125 L 5.171875 -0.15625 C 5.191406 -0.0507812 5.148438 0 5.046875 0 Z M 3.390625 -2.625 L 2.78125 -5.921875 L 2.171875 -2.625 Z M 3.390625 -2.625 "/></g></g><g style="fill:#b476e5;fill-opacity:1;"><g transform="translate(102.56716, 17.78226)"><path style="stroke:none" d="M 4.28125 -6.21875 L 4.28125 -4.484375 C 4.28125 -4.304688 4.222656 -4.15625 4.109375 -4.03125 C 3.992188 -3.90625 3.851562 -3.828125 3.6875 -3.796875 L 3.6875 -3.78125 C 3.851562 -3.757812 3.992188 -3.6875 4.109375 -3.5625 C 4.222656 -3.4375 4.28125 -3.285156 4.28125 -3.109375 L 4.28125 -1.359375 C 4.28125 -0.921875 4.160156 -0.582031 3.921875 -0.34375 C 3.691406 -0.113281 3.351562 0 2.90625 0 L 0.625 0 C 0.519531 0 0.46875 -0.0507812 0.46875 -0.15625 L 0.46875 -7.4375 C 0.46875 -7.539062 0.519531 -7.59375 0.625 -7.59375 L 2.90625 -7.59375 C 3.351562 -7.59375 3.691406 -7.472656 3.921875 -7.234375 C 4.160156 -7.003906 4.28125 -6.664062 4.28125 -6.21875 Z M 3.015625 -4.796875 L 3.015625 -5.953125 C 3.015625 -6.203125 2.890625 -6.328125 2.640625 -6.328125 L 1.78125 -6.328125 L 1.78125 -4.421875 L 2.640625 -4.421875 C 2.890625 -4.421875 3.015625 -4.546875 3.015625 -4.796875 Z M 3.015625 -1.625 L 3.015625 -2.78125 C 3.015625 -3.039062 2.890625 -3.171875 2.640625 -3.171875 L 1.78125 -3.171875 L 1.78125 -1.25 L 2.640625 -1.25 C 2.890625 -1.25 3.015625 -1.375 3.015625 -1.625 Z M 3.015625 -1.625 "/></g></g><g style="fill:#b476e5;fill-opacity:1;"><g transform="translate(107.501084, 17.78226)"><path style="stroke:none" d="M 1.765625 -1.25 L 1.765625 -7.4375 C 1.765625 -7.539062 1.710938 -7.59375 1.609375 -7.59375 L 0.625 -7.59375 C 0.519531 -7.59375 0.46875 -7.539062 0.46875 -7.4375 L 0.46875 -0.15625 C 0.46875 -0.0507812 0.519531 0 0.625 0 L 4.015625 0 C 4.117188 0 4.171875 -0.0507812 4.171875 -0.15625 L 4.171875 -1.09375 C 4.171875 -1.195312 4.117188 -1.25 4.015625 -1.25 Z M 1.765625 -1.25 "/></g></g><g style="fill:#b476e5;fill-opacity:1;"><g transform="translate(112.330849, 17.78226)"><path style="stroke:none" d="M 4.265625 -7.4375 L 4.265625 -6.484375 C 4.265625 -6.378906 4.210938 -6.328125 4.109375 -6.328125 L 1.734375 -6.328125 L 1.734375 -4.421875 L 3.546875 -4.421875 C 3.648438 -4.421875 3.703125 -4.367188 3.703125 -4.265625 L 3.703125 -3.328125 C 3.703125 -3.222656 3.648438 -3.171875 3.546875 -3.171875 L 1.734375 -3.171875 L 1.734375 -1.25 L 4.109375 -1.25 C 4.210938 -1.25 4.265625 -1.195312 4.265625 -1.09375 L 4.265625 -0.15625 C 4.265625 -0.0507812 4.210938 0 4.109375 0 L 0.609375 0 C 0.515625 0 0.46875 -0.0507812 0.46875 -0.15625 L 0.46875 -7.4375 C 0.46875 -7.539062 0.515625 -7.59375 0.609375 -7.59375 L 4.109375 -7.59375 C 4.210938 -7.59375 4.265625 -7.539062 4.265625 -7.4375 Z M 4.265625 -7.4375 "/></g></g><g clip-rule="nonzero" clip-path="url(#549e34d0fd)"><path style=" stroke:none;fill-rule:nonzero;fill:#b476e5;fill-opacity:1;" d="M 6.601562 18.679688 L 24.09375 18.679688 L 24.09375 8.40625 C 24.09375 7.839844 23.6875 7.378906 23.195312 7.378906 L 7.5 7.378906 C 7.007812 7.378906 6.601562 7.839844 6.601562 8.40625 Z M 24.273438 19.042969 L 6.421875 19.042969 C 6.320312 19.042969 6.242188 18.960938 6.242188 18.859375 L 6.242188 8.40625 C 6.242188 7.640625 6.804688 7.015625 7.5 7.015625 L 23.195312 7.015625 C 23.890625 7.015625 24.457031 7.640625 24.457031 8.40625 L 24.457031 18.859375 C 24.457031 18.960938 24.375 19.042969 24.273438 19.042969 "/></g><g clip-rule="nonzero" clip-path="url(#0af016acf6)"><path style=" stroke:none;fill-rule:nonzero;fill:#b476e5;fill-opacity:1;" d="M 3.734375 21.039062 C 3.875 21.46875 4.398438 21.78125 5.011719 21.78125 L 25.683594 21.78125 C 26.300781 21.78125 26.820312 21.46875 26.960938 21.039062 Z M 25.683594 22 L 5.011719 22 C 4.230469 22 3.578125 21.546875 3.488281 20.945312 C 3.484375 20.914062 3.496094 20.882812 3.515625 20.859375 C 3.535156 20.835938 3.566406 20.820312 3.597656 20.820312 L 27.097656 20.820312 C 27.128906 20.820312 27.160156 20.835938 27.179688 20.859375 C 27.199219 20.882812 27.210938 20.914062 27.207031 20.945312 C 27.117188 21.546875 26.464844 22 25.683594 22 "/></g><path style=" stroke:none;fill-rule:nonzero;fill:#b476e5;fill-opacity:1;" d="M 7.613281 17.871094 L 23.085938 17.871094 L 23.085938 8.457031 L 7.613281 8.457031 Z M 23.265625 18.234375 L 7.429688 18.234375 C 7.328125 18.234375 7.25 18.152344 7.25 18.050781 L 7.25 8.273438 C 7.25 8.175781 7.328125 8.09375 7.429688 8.09375 L 23.265625 8.09375 C 23.367188 8.09375 23.445312 8.175781 23.445312 8.273438 L 23.445312 18.050781 C 23.445312 18.152344 23.367188 18.234375 23.265625 18.234375 "/><g clip-rule="nonzero" clip-path="url(#b8063258b4)"><path style=" stroke:none;fill-rule:nonzero;fill:#b476e5;fill-opacity:1;" d="M 3.929688 20.820312 L 26.765625 20.820312 L 24.238281 18.96875 L 6.457031 18.96875 Z M 27.097656 21.039062 L 3.597656 21.039062 C 3.550781 21.039062 3.507812 21.007812 3.492188 20.964844 C 3.480469 20.917969 3.496094 20.871094 3.53125 20.84375 L 6.359375 18.773438 C 6.375 18.757812 6.398438 18.753906 6.421875 18.753906 L 24.273438 18.753906 C 24.296875 18.753906 24.320312 18.757812 24.339844 18.773438 L 27.164062 20.84375 C 27.199219 20.871094 27.214844 20.917969 27.203125 20.964844 C 27.1875 21.007812 27.144531 21.039062 27.097656 21.039062 "/></g><path style=" stroke:none;fill-rule:nonzero;fill:#b476e5;fill-opacity:1;" d="M 6.210938 20.492188 L 24.484375 20.492188 L 23.285156 19.300781 L 7.425781 19.300781 Z M 24.75 20.710938 L 5.945312 20.710938 C 5.902344 20.710938 5.863281 20.683594 5.84375 20.640625 C 5.828125 20.601562 5.839844 20.554688 5.871094 20.523438 L 7.304688 19.113281 C 7.328125 19.09375 7.355469 19.082031 7.382812 19.082031 L 23.332031 19.082031 C 23.359375 19.082031 23.386719 19.09375 23.40625 19.113281 L 24.828125 20.523438 C 24.859375 20.554688 24.867188 20.601562 24.851562 20.640625 C 24.832031 20.683594 24.792969 20.710938 24.75 20.710938 "/><g clip-rule="nonzero" clip-path="url(#47066d54b6)"><path style=" stroke:none;fill-rule:nonzero;fill:#b476e5;fill-opacity:1;" d="M 14 7.691406 C 13.96875 7.691406 13.941406 7.71875 13.941406 7.75 C 13.941406 7.78125 13.96875 7.804688 14 7.804688 L 16.699219 7.804688 C 16.726562 7.804688 16.753906 7.78125 16.753906 7.75 C 16.753906 7.71875 16.726562 7.691406 16.699219 7.691406 Z M 16.699219 8.023438 L 14 8.023438 C 13.847656 8.023438 13.722656 7.902344 13.722656 7.75 C 13.722656 7.597656 13.847656 7.476562 14 7.476562 L 16.699219 7.476562 C 16.847656 7.476562 16.972656 7.597656 16.972656 7.75 C 16.972656 7.902344 16.847656 8.023438 16.699219 8.023438 "/></g><path style=" stroke:none;fill-rule:nonzero;fill:#b476e5;fill-opacity:1;" d="M 22.457031 21.355469 C 22.425781 21.355469 22.398438 21.378906 22.398438 21.410156 C 22.398438 21.441406 22.425781 21.464844 22.457031 21.464844 L 25.15625 21.464844 C 25.1875 21.464844 25.210938 21.441406 25.210938 21.410156 C 25.210938 21.378906 25.1875 21.355469 25.15625 21.355469 Z M 25.15625 21.683594 L 22.457031 21.683594 C 22.304688 21.683594 22.183594 21.5625 22.183594 21.410156 C 22.183594 21.257812 22.304688 21.136719 22.457031 21.136719 L 25.15625 21.136719 C 25.304688 21.136719 25.429688 21.257812 25.429688 21.410156 C 25.429688 21.5625 25.304688 21.683594 25.15625 21.683594 "/><path style=" stroke:none;fill-rule:nonzero;fill:#b476e5;fill-opacity:1;" d="M 21.210938 21.464844 L 21.691406 21.464844 C 21.691406 21.449219 21.691406 21.433594 21.691406 21.410156 C 21.691406 21.390625 21.691406 21.371094 21.691406 21.355469 L 21.210938 21.355469 C 21.210938 21.371094 21.207031 21.390625 21.207031 21.410156 C 21.207031 21.433594 21.210938 21.449219 21.210938 21.464844 Z M 21.761719 21.683594 L 21.136719 21.683594 C 21.039062 21.683594 20.992188 21.59375 20.992188 21.410156 C 20.992188 21.230469 21.039062 21.136719 21.136719 21.136719 L 21.761719 21.136719 C 21.859375 21.136719 21.910156 21.230469 21.910156 21.410156 C 21.910156 21.59375 21.859375 21.683594 21.761719 21.683594 "/><path style=" stroke:none;fill-rule:nonzero;fill:#b476e5;fill-opacity:1;" d="M 20.019531 21.464844 L 20.496094 21.464844 C 20.5 21.449219 20.5 21.433594 20.5 21.410156 C 20.5 21.390625 20.5 21.371094 20.496094 21.355469 L 20.019531 21.355469 C 20.019531 21.371094 20.015625 21.390625 20.015625 21.410156 C 20.015625 21.433594 20.019531 21.449219 20.019531 21.464844 Z M 20.570312 21.683594 L 19.945312 21.683594 C 19.847656 21.683594 19.800781 21.59375 19.800781 21.410156 C 19.800781 21.230469 19.847656 21.136719 19.945312 21.136719 L 20.570312 21.136719 C 20.667969 21.136719 20.71875 21.230469 20.71875 21.410156 C 20.71875 21.59375 20.667969 21.683594 20.570312 21.683594 "/></g></svg>