<svg xmlns="http://www.w3.org/2000/svg" xmlns:xlink="http://www.w3.org/1999/xlink" width="160" zoomAndPan="magnify" viewBox="0 0 120 30.000001" height="40" preserveAspectRatio="xMidYMid meet" version="1.2"><defs><clipPath id="6a57b63d9b"><path d="M 2.882812 4.703125 L 22.476562 4.703125 L 22.476562 24.300781 L 2.882812 24.300781 Z M 2.882812 4.703125 "/></clipPath></defs><g id="a3d3fdb18f"><g style="fill:#b476e5;fill-opacity:1;"><g transform="translate(23.961367, 17.78226)"><path style="stroke:none" d="M 4.328125 -6.15625 L 4.328125 -3.875 C 4.328125 -3.25 4.097656 -2.832031 3.640625 -2.625 L 4.296875 -0.171875 C 4.328125 -0.0546875 4.28125 0 4.15625 0 L 3.1875 0 C 3.09375 0 3.039062 -0.0390625 3.03125 -0.125 L 2.390625 -2.515625 L 1.75 -2.515625 L 1.75 -0.15625 C 1.75 -0.0507812 1.695312 0 1.59375 0 L 0.625 0 C 0.519531 0 0.46875 -0.0507812 0.46875 -0.15625 L 0.46875 -7.359375 C 0.46875 -7.460938 0.519531 -7.515625 0.625 -7.515625 L 2.984375 -7.515625 C 3.421875 -7.515625 3.753906 -7.398438 3.984375 -7.171875 C 4.210938 -6.941406 4.328125 -6.601562 4.328125 -6.15625 Z M 1.75 -3.75 L 2.671875 -3.75 C 2.921875 -3.75 3.046875 -3.875 3.046875 -4.125 L 3.046875 -5.890625 C 3.046875 -6.140625 2.921875 -6.265625 2.671875 -6.265625 L 1.75 -6.265625 Z M 1.75 -3.75 "/></g></g><g style="fill:#b476e5;fill-opacity:1;"><g transform="translate(28.941629, 17.78226)"><path style="stroke:none" d="M 4.21875 -7.359375 L 4.21875 -6.421875 C 4.21875 -6.316406 4.164062 -6.265625 4.0625 -6.265625 L 1.71875 -6.265625 L 1.71875 -4.390625 L 3.515625 -4.390625 C 3.609375 -4.390625 3.65625 -4.332031 3.65625 -4.21875 L 3.65625 -3.296875 C 3.65625 -3.191406 3.609375 -3.140625 3.515625 -3.140625 L 1.71875 -3.140625 L 1.71875 -1.234375 L 4.0625 -1.234375 C 4.164062 -1.234375 4.21875 -1.1875 4.21875 -1.09375 L 4.21875 -0.15625 C 4.21875 -0.0507812 4.164062 0 4.0625 0 L 0.609375 0 C 0.515625 0 0.46875 -0.0507812 0.46875 -0.15625 L 0.46875 -7.359375 C 0.46875 -7.460938 0.515625 -7.515625 0.609375 -7.515625 L 4.0625 -7.515625 C 4.164062 -7.515625 4.21875 -7.460938 4.21875 -7.359375 Z M 4.21875 -7.359375 "/></g></g><g style="fill:#b476e5;fill-opacity:1;"><g transform="translate(33.809347, 17.78226)"><path style="stroke:none" d="M 4.234375 -6.15625 L 4.234375 -5.140625 C 4.234375 -5.046875 4.179688 -5 4.078125 -5 L 3.140625 -5 C 3.046875 -5 3 -5.046875 3 -5.140625 L 3 -5.890625 C 3 -6.140625 2.875 -6.265625 2.625 -6.265625 L 2.125 -6.265625 C 1.875 -6.265625 1.75 -6.140625 1.75 -5.890625 L 1.75 -1.609375 C 1.75 -1.359375 1.875 -1.234375 2.125 -1.234375 L 2.625 -1.234375 C 2.875 -1.234375 3 -1.359375 3 -1.609375 L 3 -2.359375 C 3 -2.460938 3.046875 -2.515625 3.140625 -2.515625 L 4.078125 -2.515625 C 4.179688 -2.515625 4.234375 -2.460938 4.234375 -2.359375 L 4.234375 -1.359375 C 4.234375 -0.910156 4.117188 -0.570312 3.890625 -0.34375 C 3.660156 -0.113281 3.328125 0 2.890625 0 L 1.828125 0 C 1.390625 0 1.050781 -0.113281 0.8125 -0.34375 C 0.582031 -0.570312 0.46875 -0.910156 0.46875 -1.359375 L 0.46875 -6.15625 C 0.46875 -6.601562 0.582031 -6.941406 0.8125 -7.171875 C 1.050781 -7.398438 1.390625 -7.515625 1.828125 -7.515625 L 2.890625 -7.515625 C 3.328125 -7.515625 3.660156 -7.398438 3.890625 -7.171875 C 4.117188 -6.941406 4.234375 -6.601562 4.234375 -6.15625 Z M 4.234375 -6.15625 "/></g></g><g style="fill:#b476e5;fill-opacity:1;"><g transform="translate(38.695827, 17.78226)"><path style="stroke:none" d="M 3.171875 -7.515625 L 4.03125 -7.515625 C 4.082031 -7.515625 4.125 -7.492188 4.15625 -7.453125 C 4.195312 -7.421875 4.21875 -7.378906 4.21875 -7.328125 L 4.21875 -1.359375 C 4.21875 -0.910156 4.101562 -0.570312 3.875 -0.34375 C 3.65625 -0.113281 3.320312 0 2.875 0 L 1.828125 0 C 1.390625 0 1.050781 -0.113281 0.8125 -0.34375 C 0.582031 -0.570312 0.46875 -0.910156 0.46875 -1.359375 L 0.46875 -7.328125 C 0.46875 -7.378906 0.484375 -7.421875 0.515625 -7.453125 C 0.554688 -7.492188 0.601562 -7.515625 0.65625 -7.515625 L 1.5625 -7.515625 C 1.613281 -7.515625 1.65625 -7.492188 1.6875 -7.453125 C 1.726562 -7.421875 1.75 -7.378906 1.75 -7.328125 L 1.75 -1.609375 C 1.75 -1.359375 1.875 -1.234375 2.125 -1.234375 L 2.609375 -1.234375 C 2.859375 -1.234375 2.984375 -1.359375 2.984375 -1.609375 L 2.984375 -7.328125 C 2.984375 -7.378906 3 -7.421875 3.03125 -7.453125 C 3.070312 -7.492188 3.117188 -7.515625 3.171875 -7.515625 Z M 3.171875 -7.515625 "/></g></g><g style="fill:#b476e5;fill-opacity:1;"><g transform="translate(43.572926, 17.78226)"><path style="stroke:none" d="M 0.46875 -0.15625 L 0.46875 -7.359375 C 0.46875 -7.460938 0.519531 -7.515625 0.625 -7.515625 L 2.875 -7.515625 C 3.320312 -7.515625 3.65625 -7.398438 3.875 -7.171875 C 4.101562 -6.941406 4.21875 -6.601562 4.21875 -6.15625 L 4.21875 -3.875 C 4.21875 -3.4375 4.101562 -3.097656 3.875 -2.859375 C 3.65625 -2.628906 3.320312 -2.515625 2.875 -2.515625 L 1.75 -2.515625 L 1.75 -0.15625 C 1.75 -0.0507812 1.695312 0 1.59375 0 L 0.625 0 C 0.519531 0 0.46875 -0.0507812 0.46875 -0.15625 Z M 1.75 -3.75 L 2.578125 -3.75 C 2.828125 -3.75 2.953125 -3.875 2.953125 -4.125 L 2.953125 -5.890625 C 2.953125 -6.140625 2.828125 -6.265625 2.578125 -6.265625 L 1.75 -6.265625 Z M 1.75 -3.75 "/></g></g><g style="fill:#b476e5;fill-opacity:1;"><g transform="translate(48.450025, 17.78226)"><path style="stroke:none" d="M 4.21875 -7.359375 L 4.21875 -6.421875 C 4.21875 -6.316406 4.164062 -6.265625 4.0625 -6.265625 L 1.71875 -6.265625 L 1.71875 -4.390625 L 3.515625 -4.390625 C 3.609375 -4.390625 3.65625 -4.332031 3.65625 -4.21875 L 3.65625 -3.296875 C 3.65625 -3.191406 3.609375 -3.140625 3.515625 -3.140625 L 1.71875 -3.140625 L 1.71875 -1.234375 L 4.0625 -1.234375 C 4.164062 -1.234375 4.21875 -1.1875 4.21875 -1.09375 L 4.21875 -0.15625 C 4.21875 -0.0507812 4.164062 0 4.0625 0 L 0.609375 0 C 0.515625 0 0.46875 -0.0507812 0.46875 -0.15625 L 0.46875 -7.359375 C 0.46875 -7.460938 0.515625 -7.515625 0.609375 -7.515625 L 4.0625 -7.515625 C 4.164062 -7.515625 4.21875 -7.460938 4.21875 -7.359375 Z M 4.21875 -7.359375 "/></g></g><g style="fill:#b476e5;fill-opacity:1;"><g transform="translate(53.317743, 17.78226)"><path style="stroke:none" d="M 4.328125 -6.15625 L 4.328125 -3.875 C 4.328125 -3.25 4.097656 -2.832031 3.640625 -2.625 L 4.296875 -0.171875 C 4.328125 -0.0546875 4.28125 0 4.15625 0 L 3.1875 0 C 3.09375 0 3.039062 -0.0390625 3.03125 -0.125 L 2.390625 -2.515625 L 1.75 -2.515625 L 1.75 -0.15625 C 1.75 -0.0507812 1.695312 0 1.59375 0 L 0.625 0 C 0.519531 0 0.46875 -0.0507812 0.46875 -0.15625 L 0.46875 -7.359375 C 0.46875 -7.460938 0.519531 -7.515625 0.625 -7.515625 L 2.984375 -7.515625 C 3.421875 -7.515625 3.753906 -7.398438 3.984375 -7.171875 C 4.210938 -6.941406 4.328125 -6.601562 4.328125 -6.15625 Z M 1.75 -3.75 L 2.671875 -3.75 C 2.921875 -3.75 3.046875 -3.875 3.046875 -4.125 L 3.046875 -5.890625 C 3.046875 -6.140625 2.921875 -6.265625 2.671875 -6.265625 L 1.75 -6.265625 Z M 1.75 -3.75 "/></g></g><g style="fill:#b476e5;fill-opacity:1;"><g transform="translate(58.298005, 17.78226)"><path style="stroke:none" d="M 5 0 L 4 0 C 3.914062 0 3.863281 -0.0390625 3.84375 -0.125 L 3.59375 -1.5 L 1.921875 -1.5 L 1.65625 -0.125 C 1.644531 -0.0390625 1.597656 0 1.515625 0 L 0.5 0 C 0.394531 0 0.359375 -0.0507812 0.390625 -0.15625 L 1.9375 -7.375 C 1.957031 -7.46875 2.015625 -7.515625 2.109375 -7.515625 L 3.40625 -7.515625 C 3.5 -7.515625 3.550781 -7.46875 3.5625 -7.375 L 5.125 -0.15625 C 5.144531 -0.0507812 5.101562 0 5 0 Z M 3.359375 -2.59375 L 2.75 -5.875 L 2.15625 -2.59375 Z M 3.359375 -2.59375 "/></g></g><g style="fill:#b476e5;fill-opacity:1;"><g transform="translate(63.981669, 17.78226)"><path style="stroke:none" d="M 0.4375 -7.515625 L 3.890625 -7.515625 C 3.984375 -7.515625 4.03125 -7.460938 4.03125 -7.359375 L 4.03125 -6.421875 C 4.03125 -6.316406 3.984375 -6.265625 3.890625 -6.265625 L 2.796875 -6.265625 L 2.796875 -0.15625 C 2.796875 -0.0507812 2.742188 0 2.640625 0 L 1.671875 0 C 1.566406 0 1.515625 -0.0507812 1.515625 -0.15625 L 1.515625 -6.265625 L 0.4375 -6.265625 C 0.332031 -6.265625 0.28125 -6.316406 0.28125 -6.421875 L 0.28125 -7.359375 C 0.28125 -7.460938 0.332031 -7.515625 0.4375 -7.515625 Z M 0.4375 -7.515625 "/></g></g><g style="fill:#b476e5;fill-opacity:1;"><g transform="translate(68.483616, 17.78226)"><path style="stroke:none" d="M 0.625 -7.515625 L 1.59375 -7.515625 C 1.695312 -7.515625 1.75 -7.460938 1.75 -7.359375 L 1.75 -0.15625 C 1.75 -0.0507812 1.695312 0 1.59375 0 L 0.625 0 C 0.519531 0 0.46875 -0.0507812 0.46875 -0.15625 L 0.46875 -7.359375 C 0.46875 -7.460938 0.519531 -7.515625 0.625 -7.515625 Z M 0.625 -7.515625 "/></g></g><g style="fill:#b476e5;fill-opacity:1;"><g transform="translate(70.884727, 17.78226)"><path style="stroke:none" d="M 0.46875 -1.359375 L 0.46875 -6.15625 C 0.46875 -6.601562 0.582031 -6.941406 0.8125 -7.171875 C 1.050781 -7.398438 1.390625 -7.515625 1.828125 -7.515625 L 2.875 -7.515625 C 3.320312 -7.515625 3.65625 -7.398438 3.875 -7.171875 C 4.101562 -6.941406 4.21875 -6.601562 4.21875 -6.15625 L 4.21875 -1.359375 C 4.21875 -0.910156 4.101562 -0.570312 3.875 -0.34375 C 3.65625 -0.113281 3.320312 0 2.875 0 L 1.828125 0 C 1.390625 0 1.050781 -0.113281 0.8125 -0.34375 C 0.582031 -0.570312 0.46875 -0.910156 0.46875 -1.359375 Z M 2.09375 -1.21875 L 2.640625 -1.21875 C 2.890625 -1.21875 3.015625 -1.34375 3.015625 -1.59375 L 3.015625 -5.921875 C 3.015625 -6.171875 2.890625 -6.296875 2.640625 -6.296875 L 2.09375 -6.296875 C 1.84375 -6.296875 1.71875 -6.171875 1.71875 -5.921875 L 1.71875 -1.59375 C 1.71875 -1.34375 1.84375 -1.21875 2.09375 -1.21875 Z M 2.09375 -1.21875 "/></g></g><g style="fill:#b476e5;fill-opacity:1;"><g transform="translate(75.761826, 17.78226)"><path style="stroke:none" d="M 3.359375 -7.515625 L 4.328125 -7.515625 C 4.429688 -7.515625 4.484375 -7.460938 4.484375 -7.359375 L 4.484375 -0.15625 C 4.484375 -0.0507812 4.429688 0 4.328125 0 L 3.40625 0 C 3.3125 0 3.253906 -0.0390625 3.234375 -0.125 L 1.796875 -4.125 L 1.75 -4.125 L 1.75 -0.15625 C 1.75 -0.0507812 1.695312 0 1.59375 0 L 0.625 0 C 0.519531 0 0.46875 -0.0507812 0.46875 -0.15625 L 0.46875 -7.359375 C 0.46875 -7.460938 0.519531 -7.515625 0.625 -7.515625 L 1.546875 -7.515625 C 1.640625 -7.515625 1.695312 -7.472656 1.71875 -7.390625 L 3.140625 -3.40625 L 3.203125 -3.40625 L 3.203125 -7.359375 C 3.203125 -7.460938 3.253906 -7.515625 3.359375 -7.515625 Z M 3.359375 -7.515625 "/></g></g><g style="fill:#b476e5;fill-opacity:1;"><g transform="translate(80.892153, 17.78226)"><path style="stroke:none" d=""/></g></g><g style="fill:#b476e5;fill-opacity:1;"><g transform="translate(83.424568, 17.78226)"><path style="stroke:none" d="M 0.46875 -0.15625 L 0.46875 -7.359375 C 0.46875 -7.460938 0.519531 -7.515625 0.625 -7.515625 L 2.875 -7.515625 C 3.320312 -7.515625 3.65625 -7.394531 3.875 -7.15625 C 4.101562 -6.925781 4.21875 -6.59375 4.21875 -6.15625 L 4.21875 -1.359375 C 4.21875 -0.910156 4.101562 -0.570312 3.875 -0.34375 C 3.65625 -0.113281 3.320312 0 2.875 0 L 0.625 0 C 0.519531 0 0.46875 -0.0507812 0.46875 -0.15625 Z M 1.75 -1.234375 L 2.609375 -1.234375 C 2.859375 -1.234375 2.984375 -1.359375 2.984375 -1.609375 L 2.984375 -5.890625 C 2.984375 -6.140625 2.859375 -6.265625 2.609375 -6.265625 L 1.75 -6.265625 Z M 1.75 -1.234375 "/></g></g><g style="fill:#b476e5;fill-opacity:1;"><g transform="translate(88.301667, 17.78226)"><path style="stroke:none" d="M 0.46875 -1.359375 L 0.46875 -6.15625 C 0.46875 -6.601562 0.582031 -6.941406 0.8125 -7.171875 C 1.050781 -7.398438 1.390625 -7.515625 1.828125 -7.515625 L 2.875 -7.515625 C 3.320312 -7.515625 3.65625 -7.398438 3.875 -7.171875 C 4.101562 -6.941406 4.21875 -6.601562 4.21875 -6.15625 L 4.21875 -1.359375 C 4.21875 -0.910156 4.101562 -0.570312 3.875 -0.34375 C 3.65625 -0.113281 3.320312 0 2.875 0 L 1.828125 0 C 1.390625 0 1.050781 -0.113281 0.8125 -0.34375 C 0.582031 -0.570312 0.46875 -0.910156 0.46875 -1.359375 Z M 2.09375 -1.21875 L 2.640625 -1.21875 C 2.890625 -1.21875 3.015625 -1.34375 3.015625 -1.59375 L 3.015625 -5.921875 C 3.015625 -6.171875 2.890625 -6.296875 2.640625 -6.296875 L 2.09375 -6.296875 C 1.84375 -6.296875 1.71875 -6.171875 1.71875 -5.921875 L 1.71875 -1.59375 C 1.71875 -1.34375 1.84375 -1.21875 2.09375 -1.21875 Z M 2.09375 -1.21875 "/></g></g><g style="fill:#b476e5;fill-opacity:1;"><g transform="translate(93.178766, 17.78226)"><path style="stroke:none" d="M 3.359375 -7.515625 L 4.328125 -7.515625 C 4.429688 -7.515625 4.484375 -7.460938 4.484375 -7.359375 L 4.484375 -0.15625 C 4.484375 -0.0507812 4.429688 0 4.328125 0 L 3.40625 0 C 3.3125 0 3.253906 -0.0390625 3.234375 -0.125 L 1.796875 -4.125 L 1.75 -4.125 L 1.75 -0.15625 C 1.75 -0.0507812 1.695312 0 1.59375 0 L 0.625 0 C 0.519531 0 0.46875 -0.0507812 0.46875 -0.15625 L 0.46875 -7.359375 C 0.46875 -7.460938 0.519531 -7.515625 0.625 -7.515625 L 1.546875 -7.515625 C 1.640625 -7.515625 1.695312 -7.472656 1.71875 -7.390625 L 3.140625 -3.40625 L 3.203125 -3.40625 L 3.203125 -7.359375 C 3.203125 -7.460938 3.253906 -7.515625 3.359375 -7.515625 Z M 3.359375 -7.515625 "/></g></g><g style="fill:#b476e5;fill-opacity:1;"><g transform="translate(98.309093, 17.78226)"><path style="stroke:none" d="M 3.359375 -7.515625 L 4.328125 -7.515625 C 4.429688 -7.515625 4.484375 -7.460938 4.484375 -7.359375 L 4.484375 -0.15625 C 4.484375 -0.0507812 4.429688 0 4.328125 0 L 3.40625 0 C 3.3125 0 3.253906 -0.0390625 3.234375 -0.125 L 1.796875 -4.125 L 1.75 -4.125 L 1.75 -0.15625 C 1.75 -0.0507812 1.695312 0 1.59375 0 L 0.625 0 C 0.519531 0 0.46875 -0.0507812 0.46875 -0.15625 L 0.46875 -7.359375 C 0.46875 -7.460938 0.519531 -7.515625 0.625 -7.515625 L 1.546875 -7.515625 C 1.640625 -7.515625 1.695312 -7.472656 1.71875 -7.390625 L 3.140625 -3.40625 L 3.203125 -3.40625 L 3.203125 -7.359375 C 3.203125 -7.460938 3.253906 -7.515625 3.359375 -7.515625 Z M 3.359375 -7.515625 "/></g></g><g style="fill:#b476e5;fill-opacity:1;"><g transform="translate(103.439421, 17.78226)"><path style="stroke:none" d="M 4.21875 -7.359375 L 4.21875 -6.421875 C 4.21875 -6.316406 4.164062 -6.265625 4.0625 -6.265625 L 1.71875 -6.265625 L 1.71875 -4.390625 L 3.515625 -4.390625 C 3.609375 -4.390625 3.65625 -4.332031 3.65625 -4.21875 L 3.65625 -3.296875 C 3.65625 -3.191406 3.609375 -3.140625 3.515625 -3.140625 L 1.71875 -3.140625 L 1.71875 -1.234375 L 4.0625 -1.234375 C 4.164062 -1.234375 4.21875 -1.1875 4.21875 -1.09375 L 4.21875 -0.15625 C 4.21875 -0.0507812 4.164062 0 4.0625 0 L 0.609375 0 C 0.515625 0 0.46875 -0.0507812 0.46875 -0.15625 L 0.46875 -7.359375 C 0.46875 -7.460938 0.515625 -7.515625 0.609375 -7.515625 L 4.0625 -7.515625 C 4.164062 -7.515625 4.21875 -7.460938 4.21875 -7.359375 Z M 4.21875 -7.359375 "/></g></g><g style="fill:#b476e5;fill-opacity:1;"><g transform="translate(108.307139, 17.78226)"><path style="stroke:none" d="M 4.21875 -7.359375 L 4.21875 -6.421875 C 4.21875 -6.316406 4.164062 -6.265625 4.0625 -6.265625 L 1.71875 -6.265625 L 1.71875 -4.390625 L 3.515625 -4.390625 C 3.609375 -4.390625 3.65625 -4.332031 3.65625 -4.21875 L 3.65625 -3.296875 C 3.65625 -3.191406 3.609375 -3.140625 3.515625 -3.140625 L 1.71875 -3.140625 L 1.71875 -1.234375 L 4.0625 -1.234375 C 4.164062 -1.234375 4.21875 -1.1875 4.21875 -1.09375 L 4.21875 -0.15625 C 4.21875 -0.0507812 4.164062 0 4.0625 0 L 0.609375 0 C 0.515625 0 0.46875 -0.0507812 0.46875 -0.15625 L 0.46875 -7.359375 C 0.46875 -7.460938 0.515625 -7.515625 0.609375 -7.515625 L 4.0625 -7.515625 C 4.164062 -7.515625 4.21875 -7.460938 4.21875 -7.359375 Z M 4.21875 -7.359375 "/></g></g><g style="fill:#b476e5;fill-opacity:1;"><g transform="translate(113.174858, 17.78226)"><path style="stroke:none" d="M 1.828125 -7.515625 L 2.875 -7.515625 C 3.320312 -7.515625 3.65625 -7.398438 3.875 -7.171875 C 4.101562 -6.941406 4.21875 -6.601562 4.21875 -6.15625 L 4.21875 -5.171875 C 4.21875 -5.066406 4.171875 -5.015625 4.078125 -5.015625 L 3.09375 -5.015625 C 3 -5.015625 2.953125 -5.066406 2.953125 -5.171875 L 2.953125 -5.890625 C 2.953125 -6.140625 2.828125 -6.265625 2.578125 -6.265625 L 2.125 -6.265625 C 1.875 -6.265625 1.75 -6.140625 1.75 -5.890625 L 1.75 -4.59375 L 3.984375 -3.875 C 4.140625 -3.800781 4.21875 -3.679688 4.21875 -3.515625 L 4.21875 -1.359375 C 4.21875 -0.910156 4.101562 -0.570312 3.875 -0.34375 C 3.65625 -0.113281 3.320312 0 2.875 0 L 1.828125 0 C 1.390625 0 1.050781 -0.113281 0.8125 -0.34375 C 0.582031 -0.570312 0.46875 -0.910156 0.46875 -1.359375 L 0.46875 -2.34375 C 0.46875 -2.4375 0.519531 -2.484375 0.625 -2.484375 L 1.59375 -2.484375 C 1.695312 -2.484375 1.75 -2.4375 1.75 -2.34375 L 1.75 -1.609375 C 1.75 -1.359375 1.875 -1.234375 2.125 -1.234375 L 2.578125 -1.234375 C 2.828125 -1.234375 2.953125 -1.359375 2.953125 -1.609375 L 2.953125 -2.859375 L 0.71875 -3.59375 C 0.550781 -3.65625 0.46875 -3.769531 0.46875 -3.9375 L 0.46875 -6.15625 C 0.46875 -6.601562 0.582031 -6.941406 0.8125 -7.171875 C 1.050781 -7.398438 1.390625 -7.515625 1.828125 -7.515625 Z M 1.828125 -7.515625 "/></g></g><g clip-rule="nonzero" clip-path="url(#6a57b63d9b)"><path style=" stroke:none;fill-rule:nonzero;fill:#b476e5;fill-opacity:1;" d="M 20.84375 6.660156 L 15.144531 6.660156 L 13.929688 4.847656 C 13.871094 4.757812 13.769531 4.703125 13.660156 4.703125 L 9.742188 4.703125 C 8.839844 4.703125 8.109375 5.433594 8.109375 6.335938 L 8.109375 8.292969 L 7.128906 8.292969 C 6.226562 8.292969 5.496094 9.027344 5.496094 9.929688 L 5.496094 11.886719 L 4.515625 11.886719 C 3.613281 11.886719 2.882812 12.621094 2.882812 13.519531 L 2.882812 22.664062 C 2.882812 23.566406 3.613281 24.300781 4.515625 24.300781 L 15.621094 24.300781 C 16.519531 24.300781 17.253906 23.566406 17.253906 22.664062 L 17.253906 20.707031 L 18.234375 20.707031 C 19.132812 20.707031 19.867188 19.972656 19.867188 19.074219 L 19.867188 17.113281 L 20.84375 17.113281 C 21.746094 17.113281 22.476562 16.382812 22.476562 15.480469 L 22.476562 8.292969 C 22.476562 7.394531 21.746094 6.660156 20.84375 6.660156 Z M 16.597656 22.664062 C 16.597656 23.203125 16.160156 23.644531 15.621094 23.644531 L 4.515625 23.644531 C 3.976562 23.644531 3.535156 23.203125 3.535156 22.664062 L 3.535156 13.519531 C 3.535156 12.980469 3.976562 12.539062 4.515625 12.539062 L 8.257812 12.539062 L 9.46875 14.351562 C 9.527344 14.445312 9.632812 14.5 9.742188 14.5 L 15.621094 14.5 C 16.160156 14.5 16.597656 14.941406 16.597656 15.480469 Z M 21.824219 15.480469 C 21.824219 16.019531 21.382812 16.460938 20.84375 16.460938 L 19.867188 16.460938 L 19.867188 11.886719 C 19.867188 10.984375 19.132812 10.253906 18.234375 10.253906 L 12.53125 10.253906 L 11.316406 8.441406 C 11.257812 8.351562 11.15625 8.292969 11.046875 8.292969 L 8.761719 8.292969 L 8.761719 6.335938 C 8.761719 5.796875 9.203125 5.355469 9.742188 5.355469 L 13.484375 5.355469 L 14.695312 7.167969 C 14.753906 7.257812 14.859375 7.316406 14.964844 7.316406 L 20.84375 7.316406 C 21.382812 7.316406 21.824219 7.757812 21.824219 8.292969 Z M 21.824219 15.480469 "/></g></g></svg>