<svg xmlns="http://www.w3.org/2000/svg" xmlns:xlink="http://www.w3.org/1999/xlink" width="160" zoomAndPan="magnify" viewBox="0 0 120 30.000001" height="40" preserveAspectRatio="xMidYMid meet" version="1.2"><defs/><g id="12524c9d2e"><g style="fill:#b476e5;fill-opacity:1;"><g transform="translate(23.090401, 17.78226)"><path style="stroke:none" d="M 0.625 -7.59375 L 1.609375 -7.59375 C 1.710938 -7.59375 1.765625 -7.539062 1.765625 -7.4375 L 1.765625 -0.15625 C 1.765625 -0.0507812 1.710938 0 1.609375 0 L 0.625 0 C 0.519531 0 0.46875 -0.0507812 0.46875 -0.15625 L 0.46875 -7.4375 C 0.46875 -7.539062 0.519531 -7.59375 0.625 -7.59375 Z M 0.625 -7.59375 "/></g></g><g style="fill:#b476e5;fill-opacity:1;"><g transform="translate(25.514891, 17.78226)"><path style="stroke:none" d="M 3.390625 -7.59375 L 4.375 -7.59375 C 4.476562 -7.59375 4.53125 -7.539062 4.53125 -7.4375 L 4.53125 -0.15625 C 4.53125 -0.0507812 4.476562 0 4.375 0 L 3.4375 0 C 3.34375 0 3.285156 -0.0390625 3.265625 -0.125 L 1.8125 -4.171875 L 1.765625 -4.171875 L 1.765625 -0.15625 C 1.765625 -0.0507812 1.710938 0 1.609375 0 L 0.625 0 C 0.519531 0 0.46875 -0.0507812 0.46875 -0.15625 L 0.46875 -7.4375 C 0.46875 -7.539062 0.519531 -7.59375 0.625 -7.59375 L 1.5625 -7.59375 C 1.65625 -7.59375 1.710938 -7.550781 1.734375 -7.46875 L 3.171875 -3.4375 L 3.234375 -3.4375 L 3.234375 -7.4375 C 3.234375 -7.539062 3.285156 -7.59375 3.390625 -7.59375 Z M 3.390625 -7.59375 "/></g></g><g style="fill:#b476e5;fill-opacity:1;"><g transform="translate(30.695033, 17.78226)"><path style="stroke:none" d="M 1.84375 -7.59375 L 2.90625 -7.59375 C 3.351562 -7.59375 3.691406 -7.472656 3.921875 -7.234375 C 4.148438 -7.003906 4.265625 -6.664062 4.265625 -6.21875 L 4.265625 -5.21875 C 4.265625 -5.113281 4.210938 -5.0625 4.109375 -5.0625 L 3.125 -5.0625 C 3.03125 -5.0625 2.984375 -5.113281 2.984375 -5.21875 L 2.984375 -5.953125 C 2.984375 -6.203125 2.851562 -6.328125 2.59375 -6.328125 L 2.140625 -6.328125 C 1.890625 -6.328125 1.765625 -6.203125 1.765625 -5.953125 L 1.765625 -4.640625 L 4.015625 -3.90625 C 4.179688 -3.832031 4.265625 -3.71875 4.265625 -3.5625 L 4.265625 -1.359375 C 4.265625 -0.921875 4.148438 -0.582031 3.921875 -0.34375 C 3.691406 -0.113281 3.351562 0 2.90625 0 L 1.84375 0 C 1.394531 0 1.050781 -0.113281 0.8125 -0.34375 C 0.582031 -0.582031 0.46875 -0.921875 0.46875 -1.359375 L 0.46875 -2.359375 C 0.46875 -2.460938 0.519531 -2.515625 0.625 -2.515625 L 1.609375 -2.515625 C 1.710938 -2.515625 1.765625 -2.460938 1.765625 -2.359375 L 1.765625 -1.625 C 1.765625 -1.375 1.890625 -1.25 2.140625 -1.25 L 2.59375 -1.25 C 2.851562 -1.25 2.984375 -1.375 2.984375 -1.625 L 2.984375 -2.890625 L 0.734375 -3.625 C 0.554688 -3.6875 0.46875 -3.804688 0.46875 -3.984375 L 0.46875 -6.21875 C 0.46875 -6.664062 0.582031 -7.003906 0.8125 -7.234375 C 1.050781 -7.472656 1.394531 -7.59375 1.84375 -7.59375 Z M 1.84375 -7.59375 "/></g></g><g style="fill:#b476e5;fill-opacity:1;"><g transform="translate(35.619488, 17.78226)"><path style="stroke:none" d="M 0.4375 -7.59375 L 3.921875 -7.59375 C 4.023438 -7.59375 4.078125 -7.539062 4.078125 -7.4375 L 4.078125 -6.484375 C 4.078125 -6.378906 4.023438 -6.328125 3.921875 -6.328125 L 2.828125 -6.328125 L 2.828125 -0.15625 C 2.828125 -0.0507812 2.773438 0 2.671875 0 L 1.6875 0 C 1.582031 0 1.53125 -0.0507812 1.53125 -0.15625 L 1.53125 -6.328125 L 0.4375 -6.328125 C 0.332031 -6.328125 0.28125 -6.378906 0.28125 -6.484375 L 0.28125 -7.4375 C 0.28125 -7.539062 0.332031 -7.59375 0.4375 -7.59375 Z M 0.4375 -7.59375 "/></g></g><g style="fill:#b476e5;fill-opacity:1;"><g transform="translate(40.16517, 17.78226)"><path style="stroke:none" d="M 5.046875 0 L 4.046875 0 C 3.960938 0 3.910156 -0.0390625 3.890625 -0.125 L 3.625 -1.515625 L 1.9375 -1.515625 L 1.671875 -0.125 C 1.660156 -0.0390625 1.613281 0 1.53125 0 L 0.515625 0 C 0.398438 0 0.359375 -0.0507812 0.390625 -0.15625 L 1.96875 -7.453125 C 1.976562 -7.546875 2.03125 -7.59375 2.125 -7.59375 L 3.4375 -7.59375 C 3.53125 -7.59375 3.585938 -7.546875 3.609375 -7.453125 L 5.171875 -0.15625 C 5.191406 -0.0507812 5.148438 0 5.046875 0 Z M 3.390625 -2.625 L 2.78125 -5.921875 L 2.171875 -2.625 Z M 3.390625 -2.625 "/></g></g><g style="fill:#b476e5;fill-opacity:1;"><g transform="translate(45.904009, 17.78226)"><path style="stroke:none" d="M 1.765625 -1.25 L 1.765625 -7.4375 C 1.765625 -7.539062 1.710938 -7.59375 1.609375 -7.59375 L 0.625 -7.59375 C 0.519531 -7.59375 0.46875 -7.539062 0.46875 -7.4375 L 0.46875 -0.15625 C 0.46875 -0.0507812 0.519531 0 0.625 0 L 4.015625 0 C 4.117188 0 4.171875 -0.0507812 4.171875 -0.15625 L 4.171875 -1.09375 C 4.171875 -1.195312 4.117188 -1.25 4.015625 -1.25 Z M 1.765625 -1.25 "/></g></g><g style="fill:#b476e5;fill-opacity:1;"><g transform="translate(50.733774, 17.78226)"><path style="stroke:none" d="M 1.765625 -1.25 L 1.765625 -7.4375 C 1.765625 -7.539062 1.710938 -7.59375 1.609375 -7.59375 L 0.625 -7.59375 C 0.519531 -7.59375 0.46875 -7.539062 0.46875 -7.4375 L 0.46875 -0.15625 C 0.46875 -0.0507812 0.519531 0 0.625 0 L 4.015625 0 C 4.117188 0 4.171875 -0.0507812 4.171875 -0.15625 L 4.171875 -1.09375 C 4.171875 -1.195312 4.117188 -1.25 4.015625 -1.25 Z M 1.765625 -1.25 "/></g></g><g style="fill:#b476e5;fill-opacity:1;"><g transform="translate(55.563539, 17.78226)"><path style="stroke:none" d="M 5.046875 0 L 4.046875 0 C 3.960938 0 3.910156 -0.0390625 3.890625 -0.125 L 3.625 -1.515625 L 1.9375 -1.515625 L 1.671875 -0.125 C 1.660156 -0.0390625 1.613281 0 1.53125 0 L 0.515625 0 C 0.398438 0 0.359375 -0.0507812 0.390625 -0.15625 L 1.96875 -7.453125 C 1.976562 -7.546875 2.03125 -7.59375 2.125 -7.59375 L 3.4375 -7.59375 C 3.53125 -7.59375 3.585938 -7.546875 3.609375 -7.453125 L 5.171875 -0.15625 C 5.191406 -0.0507812 5.148438 0 5.046875 0 Z M 3.390625 -2.625 L 2.78125 -5.921875 L 2.171875 -2.625 Z M 3.390625 -2.625 "/></g></g><g style="fill:#b476e5;fill-opacity:1;"><g transform="translate(61.302378, 17.78226)"><path style="stroke:none" d="M 0.4375 -7.59375 L 3.921875 -7.59375 C 4.023438 -7.59375 4.078125 -7.539062 4.078125 -7.4375 L 4.078125 -6.484375 C 4.078125 -6.378906 4.023438 -6.328125 3.921875 -6.328125 L 2.828125 -6.328125 L 2.828125 -0.15625 C 2.828125 -0.0507812 2.773438 0 2.671875 0 L 1.6875 0 C 1.582031 0 1.53125 -0.0507812 1.53125 -0.15625 L 1.53125 -6.328125 L 0.4375 -6.328125 C 0.332031 -6.328125 0.28125 -6.378906 0.28125 -6.484375 L 0.28125 -7.4375 C 0.28125 -7.539062 0.332031 -7.59375 0.4375 -7.59375 Z M 0.4375 -7.59375 "/></g></g><g style="fill:#b476e5;fill-opacity:1;"><g transform="translate(65.84806, 17.78226)"><path style="stroke:none" d="M 0.625 -7.59375 L 1.609375 -7.59375 C 1.710938 -7.59375 1.765625 -7.539062 1.765625 -7.4375 L 1.765625 -0.15625 C 1.765625 -0.0507812 1.710938 0 1.609375 0 L 0.625 0 C 0.519531 0 0.46875 -0.0507812 0.46875 -0.15625 L 0.46875 -7.4375 C 0.46875 -7.539062 0.519531 -7.59375 0.625 -7.59375 Z M 0.625 -7.59375 "/></g></g><g style="fill:#b476e5;fill-opacity:1;"><g transform="translate(68.27255, 17.78226)"><path style="stroke:none" d="M 0.46875 -1.359375 L 0.46875 -6.21875 C 0.46875 -6.664062 0.582031 -7.003906 0.8125 -7.234375 C 1.050781 -7.472656 1.394531 -7.59375 1.84375 -7.59375 L 2.90625 -7.59375 C 3.351562 -7.59375 3.691406 -7.472656 3.921875 -7.234375 C 4.148438 -7.003906 4.265625 -6.664062 4.265625 -6.21875 L 4.265625 -1.359375 C 4.265625 -0.921875 4.148438 -0.582031 3.921875 -0.34375 C 3.691406 -0.113281 3.351562 0 2.90625 0 L 1.84375 0 C 1.394531 0 1.050781 -0.113281 0.8125 -0.34375 C 0.582031 -0.582031 0.46875 -0.921875 0.46875 -1.359375 Z M 2.109375 -1.21875 L 2.671875 -1.21875 C 2.921875 -1.21875 3.046875 -1.347656 3.046875 -1.609375 L 3.046875 -5.984375 C 3.046875 -6.234375 2.921875 -6.359375 2.671875 -6.359375 L 2.109375 -6.359375 C 1.859375 -6.359375 1.734375 -6.234375 1.734375 -5.984375 L 1.734375 -1.609375 C 1.734375 -1.347656 1.859375 -1.21875 2.109375 -1.21875 Z M 2.109375 -1.21875 "/></g></g><g style="fill:#b476e5;fill-opacity:1;"><g transform="translate(73.197005, 17.78226)"><path style="stroke:none" d="M 3.390625 -7.59375 L 4.375 -7.59375 C 4.476562 -7.59375 4.53125 -7.539062 4.53125 -7.4375 L 4.53125 -0.15625 C 4.53125 -0.0507812 4.476562 0 4.375 0 L 3.4375 0 C 3.34375 0 3.285156 -0.0390625 3.265625 -0.125 L 1.8125 -4.171875 L 1.765625 -4.171875 L 1.765625 -0.15625 C 1.765625 -0.0507812 1.710938 0 1.609375 0 L 0.625 0 C 0.519531 0 0.46875 -0.0507812 0.46875 -0.15625 L 0.46875 -7.4375 C 0.46875 -7.539062 0.519531 -7.59375 0.625 -7.59375 L 1.5625 -7.59375 C 1.65625 -7.59375 1.710938 -7.550781 1.734375 -7.46875 L 3.171875 -3.4375 L 3.234375 -3.4375 L 3.234375 -7.4375 C 3.234375 -7.539062 3.285156 -7.59375 3.390625 -7.59375 Z M 3.390625 -7.59375 "/></g></g><g style="fill:#b476e5;fill-opacity:1;"><g transform="translate(78.377148, 17.78226)"><path style="stroke:none" d=""/></g></g><g style="fill:#b476e5;fill-opacity:1;"><g transform="translate(80.934215, 17.78226)"><path style="stroke:none" d="M 1.84375 -7.59375 L 2.90625 -7.59375 C 3.351562 -7.59375 3.691406 -7.472656 3.921875 -7.234375 C 4.148438 -7.003906 4.265625 -6.664062 4.265625 -6.21875 L 4.265625 -5.21875 C 4.265625 -5.113281 4.210938 -5.0625 4.109375 -5.0625 L 3.125 -5.0625 C 3.03125 -5.0625 2.984375 -5.113281 2.984375 -5.21875 L 2.984375 -5.953125 C 2.984375 -6.203125 2.851562 -6.328125 2.59375 -6.328125 L 2.140625 -6.328125 C 1.890625 -6.328125 1.765625 -6.203125 1.765625 -5.953125 L 1.765625 -4.640625 L 4.015625 -3.90625 C 4.179688 -3.832031 4.265625 -3.71875 4.265625 -3.5625 L 4.265625 -1.359375 C 4.265625 -0.921875 4.148438 -0.582031 3.921875 -0.34375 C 3.691406 -0.113281 3.351562 0 2.90625 0 L 1.84375 0 C 1.394531 0 1.050781 -0.113281 0.8125 -0.34375 C 0.582031 -0.582031 0.46875 -0.921875 0.46875 -1.359375 L 0.46875 -2.359375 C 0.46875 -2.460938 0.519531 -2.515625 0.625 -2.515625 L 1.609375 -2.515625 C 1.710938 -2.515625 1.765625 -2.460938 1.765625 -2.359375 L 1.765625 -1.625 C 1.765625 -1.375 1.890625 -1.25 2.140625 -1.25 L 2.59375 -1.25 C 2.851562 -1.25 2.984375 -1.375 2.984375 -1.625 L 2.984375 -2.890625 L 0.734375 -3.625 C 0.554688 -3.6875 0.46875 -3.804688 0.46875 -3.984375 L 0.46875 -6.21875 C 0.46875 -6.664062 0.582031 -7.003906 0.8125 -7.234375 C 1.050781 -7.472656 1.394531 -7.59375 1.84375 -7.59375 Z M 1.84375 -7.59375 "/></g></g><g style="fill:#b476e5;fill-opacity:1;"><g transform="translate(85.858671, 17.78226)"><path style="stroke:none" d="M 3.875 -7.59375 L 4.8125 -7.59375 C 4.882812 -7.59375 4.9375 -7.570312 4.96875 -7.53125 C 5 -7.488281 5 -7.4375 4.96875 -7.375 L 3.234375 -3.15625 L 3.234375 -0.1875 C 3.234375 -0.0625 3.171875 0 3.046875 0 L 2.140625 0 C 2.003906 0 1.9375 -0.0625 1.9375 -0.1875 L 1.9375 -3.15625 L 0.203125 -7.375 C 0.179688 -7.4375 0.179688 -7.488281 0.203125 -7.53125 C 0.234375 -7.570312 0.285156 -7.59375 0.359375 -7.59375 L 1.3125 -7.59375 C 1.414062 -7.59375 1.488281 -7.539062 1.53125 -7.4375 L 2.59375 -4.71875 L 3.65625 -7.4375 C 3.6875 -7.539062 3.757812 -7.59375 3.875 -7.59375 Z M 3.875 -7.59375 "/></g></g><g style="fill:#b476e5;fill-opacity:1;"><g transform="translate(91.218736, 17.78226)"><path style="stroke:none" d="M 1.84375 -7.59375 L 2.90625 -7.59375 C 3.351562 -7.59375 3.691406 -7.472656 3.921875 -7.234375 C 4.148438 -7.003906 4.265625 -6.664062 4.265625 -6.21875 L 4.265625 -5.21875 C 4.265625 -5.113281 4.210938 -5.0625 4.109375 -5.0625 L 3.125 -5.0625 C 3.03125 -5.0625 2.984375 -5.113281 2.984375 -5.21875 L 2.984375 -5.953125 C 2.984375 -6.203125 2.851562 -6.328125 2.59375 -6.328125 L 2.140625 -6.328125 C 1.890625 -6.328125 1.765625 -6.203125 1.765625 -5.953125 L 1.765625 -4.640625 L 4.015625 -3.90625 C 4.179688 -3.832031 4.265625 -3.71875 4.265625 -3.5625 L 4.265625 -1.359375 C 4.265625 -0.921875 4.148438 -0.582031 3.921875 -0.34375 C 3.691406 -0.113281 3.351562 0 2.90625 0 L 1.84375 0 C 1.394531 0 1.050781 -0.113281 0.8125 -0.34375 C 0.582031 -0.582031 0.46875 -0.921875 0.46875 -1.359375 L 0.46875 -2.359375 C 0.46875 -2.460938 0.519531 -2.515625 0.625 -2.515625 L 1.609375 -2.515625 C 1.710938 -2.515625 1.765625 -2.460938 1.765625 -2.359375 L 1.765625 -1.625 C 1.765625 -1.375 1.890625 -1.25 2.140625 -1.25 L 2.59375 -1.25 C 2.851562 -1.25 2.984375 -1.375 2.984375 -1.625 L 2.984375 -2.890625 L 0.734375 -3.625 C 0.554688 -3.6875 0.46875 -3.804688 0.46875 -3.984375 L 0.46875 -6.21875 C 0.46875 -6.664062 0.582031 -7.003906 0.8125 -7.234375 C 1.050781 -7.472656 1.394531 -7.59375 1.84375 -7.59375 Z M 1.84375 -7.59375 "/></g></g><g style="fill:#b476e5;fill-opacity:1;"><g transform="translate(96.143192, 17.78226)"><path style="stroke:none" d="M 0.4375 -7.59375 L 3.921875 -7.59375 C 4.023438 -7.59375 4.078125 -7.539062 4.078125 -7.4375 L 4.078125 -6.484375 C 4.078125 -6.378906 4.023438 -6.328125 3.921875 -6.328125 L 2.828125 -6.328125 L 2.828125 -0.15625 C 2.828125 -0.0507812 2.773438 0 2.671875 0 L 1.6875 0 C 1.582031 0 1.53125 -0.0507812 1.53125 -0.15625 L 1.53125 -6.328125 L 0.4375 -6.328125 C 0.332031 -6.328125 0.28125 -6.378906 0.28125 -6.484375 L 0.28125 -7.4375 C 0.28125 -7.539062 0.332031 -7.59375 0.4375 -7.59375 Z M 0.4375 -7.59375 "/></g></g><g style="fill:#b476e5;fill-opacity:1;"><g transform="translate(100.688874, 17.78226)"><path style="stroke:none" d="M 4.265625 -7.4375 L 4.265625 -6.484375 C 4.265625 -6.378906 4.210938 -6.328125 4.109375 -6.328125 L 1.734375 -6.328125 L 1.734375 -4.421875 L 3.546875 -4.421875 C 3.648438 -4.421875 3.703125 -4.367188 3.703125 -4.265625 L 3.703125 -3.328125 C 3.703125 -3.222656 3.648438 -3.171875 3.546875 -3.171875 L 1.734375 -3.171875 L 1.734375 -1.25 L 4.109375 -1.25 C 4.210938 -1.25 4.265625 -1.195312 4.265625 -1.09375 L 4.265625 -0.15625 C 4.265625 -0.0507812 4.210938 0 4.109375 0 L 0.609375 0 C 0.515625 0 0.46875 -0.0507812 0.46875 -0.15625 L 0.46875 -7.4375 C 0.46875 -7.539062 0.515625 -7.59375 0.609375 -7.59375 L 4.109375 -7.59375 C 4.210938 -7.59375 4.265625 -7.539062 4.265625 -7.4375 Z M 4.265625 -7.4375 "/></g></g><g style="fill:#b476e5;fill-opacity:1;"><g transform="translate(105.60386, 17.78226)"><path style="stroke:none" d="M 4.4375 -7.59375 L 5.6875 -7.59375 C 5.8125 -7.59375 5.875 -7.523438 5.875 -7.390625 L 5.875 -0.1875 C 5.875 -0.0625 5.8125 0 5.6875 0 L 4.8125 0 C 4.6875 0 4.625 -0.0625 4.625 -0.1875 L 4.625 -4.453125 L 4.546875 -4.453125 L 3.609375 -0.171875 C 3.585938 -0.0546875 3.519531 0 3.40625 0 L 2.9375 0 C 2.832031 0 2.765625 -0.0546875 2.734375 -0.171875 L 1.796875 -4.453125 L 1.71875 -4.453125 L 1.71875 -0.1875 C 1.71875 -0.0625 1.65625 0 1.53125 0 L 0.65625 0 C 0.53125 0 0.46875 -0.0625 0.46875 -0.1875 L 0.46875 -7.390625 C 0.46875 -7.523438 0.53125 -7.59375 0.65625 -7.59375 L 1.921875 -7.59375 C 2.035156 -7.59375 2.101562 -7.535156 2.125 -7.421875 L 3.171875 -2.6875 L 4.234375 -7.421875 C 4.265625 -7.535156 4.332031 -7.59375 4.4375 -7.59375 Z M 4.4375 -7.59375 "/></g></g><g style="fill:#b476e5;fill-opacity:1;"><g transform="translate(112.138145, 17.78226)"><path style="stroke:none" d="M 4.265625 -7.4375 L 4.265625 -6.484375 C 4.265625 -6.378906 4.210938 -6.328125 4.109375 -6.328125 L 1.734375 -6.328125 L 1.734375 -4.421875 L 3.546875 -4.421875 C 3.648438 -4.421875 3.703125 -4.367188 3.703125 -4.265625 L 3.703125 -3.328125 C 3.703125 -3.222656 3.648438 -3.171875 3.546875 -3.171875 L 1.734375 -3.171875 L 1.734375 -1.25 L 4.109375 -1.25 C 4.210938 -1.25 4.265625 -1.195312 4.265625 -1.09375 L 4.265625 -0.15625 C 4.265625 -0.0507812 4.210938 0 4.109375 0 L 0.609375 0 C 0.515625 0 0.46875 -0.0507812 0.46875 -0.15625 L 0.46875 -7.4375 C 0.46875 -7.539062 0.515625 -7.59375 0.609375 -7.59375 L 4.109375 -7.59375 C 4.210938 -7.59375 4.265625 -7.539062 4.265625 -7.4375 Z M 4.265625 -7.4375 "/></g></g><path style=" stroke:none;fill-rule:nonzero;fill:#b476e5;fill-opacity:1;" d="M 13.847656 13.019531 C 13.894531 13.054688 13.941406 13.09375 13.984375 13.136719 C 13.941406 13.09375 13.894531 13.054688 13.847656 13.019531 Z M 12.921875 14.132812 C 12.949219 14.164062 12.980469 14.1875 13.011719 14.210938 C 12.980469 14.1875 12.949219 14.160156 12.921875 14.132812 Z M 7.59375 11.777344 L 8.703125 11.777344 C 10.324219 9.976562 13.144531 9.976562 14.765625 11.777344 L 16.09375 11.777344 C 16.203125 11.777344 16.292969 11.867188 16.292969 11.976562 L 16.292969 17.03125 C 16.292969 17.140625 16.203125 17.230469 16.09375 17.230469 L 14.765625 17.230469 C 13.144531 19.027344 10.324219 19.027344 8.703125 17.230469 L 7.59375 17.230469 C 7.484375 17.230469 7.394531 17.140625 7.394531 17.03125 L 7.394531 11.976562 C 7.394531 11.867188 7.484375 11.777344 7.59375 11.777344 Z M 9.261719 11.777344 L 14.207031 11.777344 C 12.808594 10.503906 10.664062 10.503906 9.261719 11.777344 Z M 14.207031 17.230469 L 9.261719 17.230469 C 10.664062 18.5 12.808594 18.5 14.207031 17.230469 Z M 12.246094 7.832031 L 11.226562 7.832031 C 11.039062 7.832031 10.882812 7.984375 10.882812 8.171875 L 10.882812 8.570312 C 10.882812 8.90625 10.660156 9.195312 10.335938 9.28125 C 9.878906 9.40625 9.441406 9.585938 9.035156 9.820312 C 8.742188 9.992188 8.378906 9.945312 8.140625 9.707031 L 7.859375 9.425781 C 7.726562 9.292969 7.511719 9.292969 7.375 9.425781 L 6.65625 10.144531 C 6.589844 10.210938 6.554688 10.300781 6.554688 10.386719 L 6.558594 10.386719 C 6.558594 10.476562 6.589844 10.5625 6.65625 10.628906 L 6.9375 10.910156 C 7.175781 11.148438 7.222656 11.511719 7.054688 11.800781 C 6.820312 12.210938 6.636719 12.644531 6.515625 13.101562 C 6.425781 13.429688 6.136719 13.652344 5.800781 13.652344 L 5.40625 13.652344 C 5.21875 13.652344 5.0625 13.804688 5.0625 13.992188 L 5.0625 15.011719 C 5.0625 15.199219 5.214844 15.355469 5.40625 15.355469 L 5.800781 15.355469 C 6.140625 15.355469 6.429688 15.578125 6.515625 15.902344 C 6.636719 16.359375 6.820312 16.796875 7.054688 17.203125 C 7.222656 17.496094 7.175781 17.859375 6.9375 18.097656 L 6.65625 18.375 C 6.523438 18.511719 6.523438 18.726562 6.65625 18.859375 L 7.375 19.582031 C 7.511719 19.714844 7.726562 19.714844 7.859375 19.582031 L 8.140625 19.300781 C 8.382812 19.0625 8.742188 19.015625 9.035156 19.183594 C 9.441406 19.417969 9.878906 19.601562 10.335938 19.722656 C 10.660156 19.8125 10.882812 20.101562 10.882812 20.4375 L 10.882812 20.832031 C 10.882812 21.023438 11.039062 21.175781 11.226562 21.175781 L 12.246094 21.175781 C 12.433594 21.175781 12.585938 21.023438 12.585938 20.832031 L 12.585938 20.4375 C 12.585938 20.101562 12.808594 19.8125 13.136719 19.722656 C 13.59375 19.601562 14.03125 19.417969 14.4375 19.183594 C 14.726562 19.015625 15.089844 19.0625 15.328125 19.300781 L 15.609375 19.582031 C 15.742188 19.714844 15.960938 19.714844 16.09375 19.582031 L 16.8125 18.859375 C 16.878906 18.792969 16.914062 18.707031 16.914062 18.621094 C 16.914062 18.53125 16.878906 18.445312 16.8125 18.375 L 16.535156 18.097656 C 16.296875 17.859375 16.246094 17.496094 16.417969 17.203125 C 16.652344 16.796875 16.832031 16.359375 16.953125 15.902344 C 17.042969 15.578125 17.332031 15.355469 17.667969 15.355469 L 18.066406 15.355469 C 18.253906 15.355469 18.40625 15.203125 18.40625 15.011719 L 18.40625 13.992188 C 18.40625 13.804688 18.253906 13.652344 18.066406 13.652344 L 17.667969 13.652344 C 17.332031 13.652344 17.042969 13.429688 16.953125 13.105469 C 16.832031 12.644531 16.652344 12.210938 16.417969 11.800781 C 16.246094 11.511719 16.296875 11.148438 16.535156 10.910156 L 16.8125 10.628906 C 16.945312 10.496094 16.945312 10.277344 16.8125 10.144531 L 16.09375 9.425781 C 15.960938 9.292969 15.742188 9.292969 15.609375 9.425781 L 15.328125 9.707031 C 15.089844 9.945312 14.726562 9.992188 14.4375 9.820312 C 14.03125 9.585938 13.59375 9.40625 13.136719 9.28125 C 12.808594 9.195312 12.585938 8.90625 12.585938 8.570312 L 12.585938 8.171875 C 12.585938 7.984375 12.433594 7.832031 12.246094 7.832031 Z M 18.210938 20.804688 C 18.191406 20.789062 18.171875 20.773438 18.152344 20.757812 C 18.171875 20.773438 18.191406 20.789062 18.210938 20.804688 Z M 3.152344 10.652344 C 3.132812 10.636719 3.113281 10.621094 3.09375 10.605469 C 3.113281 10.621094 3.132812 10.636719 3.152344 10.652344 Z M 14.855469 22.640625 C 14.957031 22.601562 15.070312 22.65625 15.113281 22.757812 C 15.152344 22.859375 15.097656 22.972656 14.996094 23.011719 C 11.625 24.300781 7.828125 23.484375 5.292969 20.945312 C 2.753906 18.410156 1.933594 14.613281 3.222656 11.238281 C 3.261719 11.136719 3.378906 11.085938 3.480469 11.125 C 3.582031 11.164062 3.632812 11.277344 3.59375 11.378906 C 2.359375 14.605469 3.140625 18.238281 5.570312 20.664062 C 7.996094 23.089844 11.636719 23.878906 14.855469 22.640625 Z M 8.613281 6.363281 C 8.511719 6.402344 8.394531 6.351562 8.355469 6.25 C 8.316406 6.144531 8.367188 6.03125 8.472656 5.992188 C 11.84375 4.703125 15.640625 5.523438 18.175781 8.058594 C 20.714844 10.597656 21.53125 14.394531 20.242188 17.765625 C 20.203125 17.867188 20.089844 17.917969 19.988281 17.878906 C 19.886719 17.839844 19.835938 17.726562 19.875 17.625 C 21.105469 14.398438 20.324219 10.769531 17.898438 8.339844 C 15.472656 5.914062 11.832031 5.128906 8.613281 6.363281 Z M 8.613281 6.363281 "/><path style=" stroke:none;fill-rule:evenodd;fill:#08a6d0;fill-opacity:1;" d="M 19.195312 18.058594 C 20.050781 18.058594 20.746094 18.753906 20.746094 19.609375 C 20.746094 20.464844 20.050781 21.15625 19.195312 21.15625 C 18.339844 21.15625 17.644531 20.464844 17.644531 19.609375 C 17.644531 18.753906 18.339844 18.058594 19.195312 18.058594 Z M 4.136719 11.007812 C 3.28125 11.007812 2.585938 10.3125 2.585938 9.457031 C 2.585938 8.601562 3.28125 7.90625 4.136719 7.90625 C 4.992188 7.90625 5.6875 8.601562 5.6875 9.457031 C 5.6875 10.3125 4.992188 11.007812 4.136719 11.007812 Z M 7.777344 12.101562 L 15.960938 12.101562 L 15.960938 16.84375 L 7.777344 16.84375 Z M 11.238281 15.589844 C 11.675781 14.96875 11.675781 13.976562 11.238281 13.355469 C 11.035156 13.070312 10.738281 12.859375 10.382812 12.859375 C 10.023438 12.859375 9.726562 13.070312 9.527344 13.355469 C 9.085938 13.976562 9.085938 14.96875 9.527344 15.589844 C 9.992188 16.25 10.773438 16.25 11.238281 15.589844 Z M 9.515625 14.472656 C 9.515625 14.226562 9.558594 13.980469 9.660156 13.757812 C 9.738281 13.578125 9.863281 13.40625 10.023438 13.296875 C 10.167969 13.199219 10.335938 13.15625 10.507812 13.191406 C 10.707031 13.234375 10.863281 13.375 10.976562 13.535156 C 11.339844 14.050781 11.339844 14.894531 10.976562 15.410156 C 10.863281 15.570312 10.707031 15.710938 10.507812 15.753906 C 10.335938 15.792969 10.167969 15.746094 10.023438 15.648438 C 9.863281 15.539062 9.738281 15.367188 9.660156 15.1875 C 9.558594 14.964844 9.515625 14.71875 9.515625 14.472656 Z M 12.503906 15.492188 C 12.71875 16.105469 13.503906 16.285156 13.964844 15.824219 C 14.519531 15.269531 14.125 14.3125 13.339844 14.3125 C 12.835938 14.3125 12.582031 13.699219 12.941406 13.34375 C 13.234375 13.050781 13.738281 13.164062 13.878906 13.558594 C 13.945312 13.753906 14.242188 13.652344 14.175781 13.453125 C 13.960938 12.839844 13.175781 12.660156 12.714844 13.121094 C 12.160156 13.675781 12.554688 14.632812 13.339844 14.632812 C 13.84375 14.632812 14.097656 15.246094 13.742188 15.601562 C 13.445312 15.894531 12.941406 15.78125 12.804688 15.386719 C 12.734375 15.191406 12.4375 15.292969 12.503906 15.492188 Z M 12.503906 15.492188 "/></g></svg>