<svg xmlns="http://www.w3.org/2000/svg" xmlns:xlink="http://www.w3.org/1999/xlink" width="160" zoomAndPan="magnify" viewBox="0 0 120 30.000001" height="40" preserveAspectRatio="xMidYMid meet" version="1.2"><defs><clipPath id="113acf09d3"><path d="M 2.953125 4.703125 L 17.46875 4.703125 L 17.46875 24.300781 L 2.953125 24.300781 Z M 2.953125 4.703125 "/></clipPath></defs><g id="b68888c24d"><g style="fill:#b476e5;fill-opacity:1;"><g transform="translate(18.584518, 17.78226)"><path style="stroke:none" d="M 4.28125 -6.21875 L 4.28125 -5.203125 C 4.28125 -5.097656 4.226562 -5.046875 4.125 -5.046875 L 3.171875 -5.046875 C 3.078125 -5.046875 3.03125 -5.097656 3.03125 -5.203125 L 3.03125 -5.953125 C 3.03125 -6.203125 2.898438 -6.328125 2.640625 -6.328125 L 2.15625 -6.328125 C 1.90625 -6.328125 1.78125 -6.203125 1.78125 -5.953125 L 1.78125 -1.625 C 1.78125 -1.375 1.90625 -1.25 2.15625 -1.25 L 2.640625 -1.25 C 2.898438 -1.25 3.03125 -1.375 3.03125 -1.625 L 3.03125 -2.390625 C 3.03125 -2.492188 3.078125 -2.546875 3.171875 -2.546875 L 4.125 -2.546875 C 4.226562 -2.546875 4.28125 -2.492188 4.28125 -2.390625 L 4.28125 -1.359375 C 4.28125 -0.921875 4.160156 -0.582031 3.921875 -0.34375 C 3.691406 -0.113281 3.351562 0 2.90625 0 L 1.84375 0 C 1.40625 0 1.066406 -0.113281 0.828125 -0.34375 C 0.585938 -0.582031 0.46875 -0.921875 0.46875 -1.359375 L 0.46875 -6.21875 C 0.46875 -6.664062 0.585938 -7.003906 0.828125 -7.234375 C 1.066406 -7.472656 1.40625 -7.59375 1.84375 -7.59375 L 2.90625 -7.59375 C 3.351562 -7.59375 3.691406 -7.472656 3.921875 -7.234375 C 4.160156 -7.003906 4.28125 -6.664062 4.28125 -6.21875 Z M 4.28125 -6.21875 "/></g></g><g style="fill:#b476e5;fill-opacity:1;"><g transform="translate(23.518442, 17.78226)"><path style="stroke:none" d="M 2.984375 -4.421875 L 2.984375 -7.4375 C 2.984375 -7.539062 3.03125 -7.59375 3.125 -7.59375 L 4.109375 -7.59375 C 4.210938 -7.59375 4.265625 -7.539062 4.265625 -7.4375 L 4.265625 -0.15625 C 4.265625 -0.0507812 4.210938 0 4.109375 0 L 3.125 0 C 3.03125 0 2.984375 -0.0507812 2.984375 -0.15625 L 2.984375 -3.171875 L 1.765625 -3.171875 L 1.765625 -0.15625 C 1.765625 -0.0507812 1.710938 0 1.609375 0 L 0.640625 0 C 0.523438 0 0.46875 -0.0507812 0.46875 -0.15625 L 0.46875 -7.4375 C 0.46875 -7.539062 0.523438 -7.59375 0.640625 -7.59375 L 1.609375 -7.59375 C 1.710938 -7.59375 1.765625 -7.539062 1.765625 -7.4375 L 1.765625 -4.421875 Z M 2.984375 -4.421875 "/></g></g><g style="fill:#b476e5;fill-opacity:1;"><g transform="translate(28.442898, 17.78226)"><path style="stroke:none" d="M 5.046875 0 L 4.046875 0 C 3.960938 0 3.910156 -0.0390625 3.890625 -0.125 L 3.625 -1.515625 L 1.9375 -1.515625 L 1.671875 -0.125 C 1.660156 -0.0390625 1.613281 0 1.53125 0 L 0.515625 0 C 0.398438 0 0.359375 -0.0507812 0.390625 -0.15625 L 1.96875 -7.453125 C 1.976562 -7.546875 2.03125 -7.59375 2.125 -7.59375 L 3.4375 -7.59375 C 3.53125 -7.59375 3.585938 -7.546875 3.609375 -7.453125 L 5.171875 -0.15625 C 5.191406 -0.0507812 5.148438 0 5.046875 0 Z M 3.390625 -2.625 L 2.78125 -5.921875 L 2.171875 -2.625 Z M 3.390625 -2.625 "/></g></g><g style="fill:#b476e5;fill-opacity:1;"><g transform="translate(34.181737, 17.78226)"><path style="stroke:none" d="M 3.390625 -7.59375 L 4.375 -7.59375 C 4.476562 -7.59375 4.53125 -7.539062 4.53125 -7.4375 L 4.53125 -0.15625 C 4.53125 -0.0507812 4.476562 0 4.375 0 L 3.4375 0 C 3.34375 0 3.285156 -0.0390625 3.265625 -0.125 L 1.8125 -4.171875 L 1.765625 -4.171875 L 1.765625 -0.15625 C 1.765625 -0.0507812 1.710938 0 1.609375 0 L 0.625 0 C 0.519531 0 0.46875 -0.0507812 0.46875 -0.15625 L 0.46875 -7.4375 C 0.46875 -7.539062 0.519531 -7.59375 0.625 -7.59375 L 1.5625 -7.59375 C 1.65625 -7.59375 1.710938 -7.550781 1.734375 -7.46875 L 3.171875 -3.4375 L 3.234375 -3.4375 L 3.234375 -7.4375 C 3.234375 -7.539062 3.285156 -7.59375 3.390625 -7.59375 Z M 3.390625 -7.59375 "/></g></g><g style="fill:#b476e5;fill-opacity:1;"><g transform="translate(39.361879, 17.78226)"><path style="stroke:none" d="M 0.46875 -1.359375 L 0.46875 -6.21875 C 0.46875 -6.664062 0.582031 -7.003906 0.8125 -7.234375 C 1.050781 -7.472656 1.394531 -7.59375 1.84375 -7.59375 L 3.09375 -7.59375 C 3.53125 -7.59375 3.863281 -7.472656 4.09375 -7.234375 C 4.332031 -7.003906 4.453125 -6.664062 4.453125 -6.21875 L 4.453125 -5.234375 C 4.453125 -5.128906 4.40625 -5.078125 4.3125 -5.078125 L 3.359375 -5.078125 C 3.253906 -5.078125 3.203125 -5.128906 3.203125 -5.234375 L 3.203125 -5.953125 C 3.203125 -6.203125 3.078125 -6.328125 2.828125 -6.328125 L 2.140625 -6.328125 C 1.890625 -6.328125 1.765625 -6.203125 1.765625 -5.953125 L 1.765625 -1.625 C 1.765625 -1.375 1.890625 -1.25 2.140625 -1.25 L 2.828125 -1.25 C 3.078125 -1.25 3.203125 -1.375 3.203125 -1.625 L 3.203125 -2.90625 L 2.71875 -2.90625 C 2.613281 -2.90625 2.5625 -2.953125 2.5625 -3.046875 L 2.5625 -4 C 2.5625 -4.101562 2.613281 -4.15625 2.71875 -4.15625 L 4.3125 -4.15625 C 4.40625 -4.15625 4.453125 -4.101562 4.453125 -4 L 4.453125 -1.359375 C 4.453125 -0.921875 4.332031 -0.582031 4.09375 -0.34375 C 3.863281 -0.113281 3.53125 0 3.09375 0 L 1.84375 0 C 1.394531 0 1.050781 -0.113281 0.8125 -0.34375 C 0.582031 -0.582031 0.46875 -0.921875 0.46875 -1.359375 Z M 0.46875 -1.359375 "/></g></g><g style="fill:#b476e5;fill-opacity:1;"><g transform="translate(44.475727, 17.78226)"><path style="stroke:none" d="M 4.265625 -7.4375 L 4.265625 -6.484375 C 4.265625 -6.378906 4.210938 -6.328125 4.109375 -6.328125 L 1.734375 -6.328125 L 1.734375 -4.421875 L 3.546875 -4.421875 C 3.648438 -4.421875 3.703125 -4.367188 3.703125 -4.265625 L 3.703125 -3.328125 C 3.703125 -3.222656 3.648438 -3.171875 3.546875 -3.171875 L 1.734375 -3.171875 L 1.734375 -1.25 L 4.109375 -1.25 C 4.210938 -1.25 4.265625 -1.195312 4.265625 -1.09375 L 4.265625 -0.15625 C 4.265625 -0.0507812 4.210938 0 4.109375 0 L 0.609375 0 C 0.515625 0 0.46875 -0.0507812 0.46875 -0.15625 L 0.46875 -7.4375 C 0.46875 -7.539062 0.515625 -7.59375 0.609375 -7.59375 L 4.109375 -7.59375 C 4.210938 -7.59375 4.265625 -7.539062 4.265625 -7.4375 Z M 4.265625 -7.4375 "/></g></g><g style="fill:#b476e5;fill-opacity:1;"><g transform="translate(49.390713, 17.78226)"><path style="stroke:none" d="M 4.4375 -7.59375 L 5.6875 -7.59375 C 5.8125 -7.59375 5.875 -7.523438 5.875 -7.390625 L 5.875 -0.1875 C 5.875 -0.0625 5.8125 0 5.6875 0 L 4.8125 0 C 4.6875 0 4.625 -0.0625 4.625 -0.1875 L 4.625 -4.453125 L 4.546875 -4.453125 L 3.609375 -0.171875 C 3.585938 -0.0546875 3.519531 0 3.40625 0 L 2.9375 0 C 2.832031 0 2.765625 -0.0546875 2.734375 -0.171875 L 1.796875 -4.453125 L 1.71875 -4.453125 L 1.71875 -0.1875 C 1.71875 -0.0625 1.65625 0 1.53125 0 L 0.65625 0 C 0.53125 0 0.46875 -0.0625 0.46875 -0.1875 L 0.46875 -7.390625 C 0.46875 -7.523438 0.53125 -7.59375 0.65625 -7.59375 L 1.921875 -7.59375 C 2.035156 -7.59375 2.101562 -7.535156 2.125 -7.421875 L 3.171875 -2.6875 L 4.234375 -7.421875 C 4.265625 -7.535156 4.332031 -7.59375 4.4375 -7.59375 Z M 4.4375 -7.59375 "/></g></g><g style="fill:#b476e5;fill-opacity:1;"><g transform="translate(55.924998, 17.78226)"><path style="stroke:none" d="M 4.265625 -7.4375 L 4.265625 -6.484375 C 4.265625 -6.378906 4.210938 -6.328125 4.109375 -6.328125 L 1.734375 -6.328125 L 1.734375 -4.421875 L 3.546875 -4.421875 C 3.648438 -4.421875 3.703125 -4.367188 3.703125 -4.265625 L 3.703125 -3.328125 C 3.703125 -3.222656 3.648438 -3.171875 3.546875 -3.171875 L 1.734375 -3.171875 L 1.734375 -1.25 L 4.109375 -1.25 C 4.210938 -1.25 4.265625 -1.195312 4.265625 -1.09375 L 4.265625 -0.15625 C 4.265625 -0.0507812 4.210938 0 4.109375 0 L 0.609375 0 C 0.515625 0 0.46875 -0.0507812 0.46875 -0.15625 L 0.46875 -7.4375 C 0.46875 -7.539062 0.515625 -7.59375 0.609375 -7.59375 L 4.109375 -7.59375 C 4.210938 -7.59375 4.265625 -7.539062 4.265625 -7.4375 Z M 4.265625 -7.4375 "/></g></g><g style="fill:#b476e5;fill-opacity:1;"><g transform="translate(60.839984, 17.78226)"><path style="stroke:none" d="M 3.390625 -7.59375 L 4.375 -7.59375 C 4.476562 -7.59375 4.53125 -7.539062 4.53125 -7.4375 L 4.53125 -0.15625 C 4.53125 -0.0507812 4.476562 0 4.375 0 L 3.4375 0 C 3.34375 0 3.285156 -0.0390625 3.265625 -0.125 L 1.8125 -4.171875 L 1.765625 -4.171875 L 1.765625 -0.15625 C 1.765625 -0.0507812 1.710938 0 1.609375 0 L 0.625 0 C 0.519531 0 0.46875 -0.0507812 0.46875 -0.15625 L 0.46875 -7.4375 C 0.46875 -7.539062 0.519531 -7.59375 0.625 -7.59375 L 1.5625 -7.59375 C 1.65625 -7.59375 1.710938 -7.550781 1.734375 -7.46875 L 3.171875 -3.4375 L 3.234375 -3.4375 L 3.234375 -7.4375 C 3.234375 -7.539062 3.285156 -7.59375 3.390625 -7.59375 Z M 3.390625 -7.59375 "/></g></g><g style="fill:#b476e5;fill-opacity:1;"><g transform="translate(66.020127, 17.78226)"><path style="stroke:none" d="M 0.4375 -7.59375 L 3.921875 -7.59375 C 4.023438 -7.59375 4.078125 -7.539062 4.078125 -7.4375 L 4.078125 -6.484375 C 4.078125 -6.378906 4.023438 -6.328125 3.921875 -6.328125 L 2.828125 -6.328125 L 2.828125 -0.15625 C 2.828125 -0.0507812 2.773438 0 2.671875 0 L 1.6875 0 C 1.582031 0 1.53125 -0.0507812 1.53125 -0.15625 L 1.53125 -6.328125 L 0.4375 -6.328125 C 0.332031 -6.328125 0.28125 -6.378906 0.28125 -6.484375 L 0.28125 -7.4375 C 0.28125 -7.539062 0.332031 -7.59375 0.4375 -7.59375 Z M 0.4375 -7.59375 "/></g></g><g style="fill:#b476e5;fill-opacity:1;"><g transform="translate(70.565809, 17.78226)"><path style="stroke:none" d=""/></g></g><g style="fill:#b476e5;fill-opacity:1;"><g transform="translate(73.122876, 17.78226)"><path style="stroke:none" d="M 0.46875 -0.15625 L 0.46875 -7.4375 C 0.46875 -7.539062 0.519531 -7.59375 0.625 -7.59375 L 2.90625 -7.59375 C 3.351562 -7.59375 3.691406 -7.472656 3.921875 -7.234375 C 4.148438 -7.003906 4.265625 -6.664062 4.265625 -6.21875 L 4.265625 -1.359375 C 4.265625 -0.921875 4.148438 -0.582031 3.921875 -0.34375 C 3.691406 -0.113281 3.351562 0 2.90625 0 L 0.625 0 C 0.519531 0 0.46875 -0.0507812 0.46875 -0.15625 Z M 1.765625 -1.25 L 2.640625 -1.25 C 2.890625 -1.25 3.015625 -1.375 3.015625 -1.625 L 3.015625 -5.953125 C 3.015625 -6.203125 2.890625 -6.328125 2.640625 -6.328125 L 1.765625 -6.328125 Z M 1.765625 -1.25 "/></g></g><g style="fill:#b476e5;fill-opacity:1;"><g transform="translate(78.047332, 17.78226)"><path style="stroke:none" d="M 0.625 -7.59375 L 1.609375 -7.59375 C 1.710938 -7.59375 1.765625 -7.539062 1.765625 -7.4375 L 1.765625 -0.15625 C 1.765625 -0.0507812 1.710938 0 1.609375 0 L 0.625 0 C 0.519531 0 0.46875 -0.0507812 0.46875 -0.15625 L 0.46875 -7.4375 C 0.46875 -7.539062 0.519531 -7.59375 0.625 -7.59375 Z M 0.625 -7.59375 "/></g></g><g style="fill:#b476e5;fill-opacity:1;"><g transform="translate(80.471822, 17.78226)"><path style="stroke:none" d="M 1.84375 -7.59375 L 2.90625 -7.59375 C 3.351562 -7.59375 3.691406 -7.472656 3.921875 -7.234375 C 4.148438 -7.003906 4.265625 -6.664062 4.265625 -6.21875 L 4.265625 -5.21875 C 4.265625 -5.113281 4.210938 -5.0625 4.109375 -5.0625 L 3.125 -5.0625 C 3.03125 -5.0625 2.984375 -5.113281 2.984375 -5.21875 L 2.984375 -5.953125 C 2.984375 -6.203125 2.851562 -6.328125 2.59375 -6.328125 L 2.140625 -6.328125 C 1.890625 -6.328125 1.765625 -6.203125 1.765625 -5.953125 L 1.765625 -4.640625 L 4.015625 -3.90625 C 4.179688 -3.832031 4.265625 -3.71875 4.265625 -3.5625 L 4.265625 -1.359375 C 4.265625 -0.921875 4.148438 -0.582031 3.921875 -0.34375 C 3.691406 -0.113281 3.351562 0 2.90625 0 L 1.84375 0 C 1.394531 0 1.050781 -0.113281 0.8125 -0.34375 C 0.582031 -0.582031 0.46875 -0.921875 0.46875 -1.359375 L 0.46875 -2.359375 C 0.46875 -2.460938 0.519531 -2.515625 0.625 -2.515625 L 1.609375 -2.515625 C 1.710938 -2.515625 1.765625 -2.460938 1.765625 -2.359375 L 1.765625 -1.625 C 1.765625 -1.375 1.890625 -1.25 2.140625 -1.25 L 2.59375 -1.25 C 2.851562 -1.25 2.984375 -1.375 2.984375 -1.625 L 2.984375 -2.890625 L 0.734375 -3.625 C 0.554688 -3.6875 0.46875 -3.804688 0.46875 -3.984375 L 0.46875 -6.21875 C 0.46875 -6.664062 0.582031 -7.003906 0.8125 -7.234375 C 1.050781 -7.472656 1.394531 -7.59375 1.84375 -7.59375 Z M 1.84375 -7.59375 "/></g></g><g style="fill:#b476e5;fill-opacity:1;"><g transform="translate(85.396277, 17.78226)"><path style="stroke:none" d="M 4.265625 -6.21875 L 4.265625 -1.359375 C 4.265625 -0.765625 4.0625 -0.363281 3.65625 -0.15625 L 4.03125 0.65625 C 4.050781 0.707031 4.046875 0.75 4.015625 0.78125 C 3.984375 0.8125 3.941406 0.828125 3.890625 0.828125 L 2.90625 0.828125 C 2.863281 0.828125 2.832031 0.816406 2.8125 0.796875 C 2.789062 0.773438 2.769531 0.742188 2.75 0.703125 L 2.421875 0 L 1.84375 0 C 1.394531 0 1.050781 -0.113281 0.8125 -0.34375 C 0.582031 -0.582031 0.46875 -0.921875 0.46875 -1.359375 L 0.46875 -6.21875 C 0.46875 -6.664062 0.582031 -7.003906 0.8125 -7.234375 C 1.050781 -7.472656 1.394531 -7.59375 1.84375 -7.59375 L 2.90625 -7.59375 C 3.351562 -7.59375 3.691406 -7.472656 3.921875 -7.234375 C 4.148438 -7.003906 4.265625 -6.664062 4.265625 -6.21875 Z M 1.765625 -5.953125 L 1.765625 -1.625 C 1.765625 -1.375 1.890625 -1.25 2.140625 -1.25 L 2.640625 -1.25 C 2.890625 -1.25 3.015625 -1.375 3.015625 -1.625 L 3.015625 -5.953125 C 3.015625 -6.203125 2.890625 -6.328125 2.640625 -6.328125 L 2.140625 -6.328125 C 1.890625 -6.328125 1.765625 -6.203125 1.765625 -5.953125 Z M 1.765625 -5.953125 "/></g></g><g style="fill:#b476e5;fill-opacity:1;"><g transform="translate(90.320733, 17.78226)"><path style="stroke:none" d="M 3.203125 -7.59375 L 4.078125 -7.59375 C 4.128906 -7.59375 4.171875 -7.570312 4.203125 -7.53125 C 4.242188 -7.488281 4.265625 -7.441406 4.265625 -7.390625 L 4.265625 -1.359375 C 4.265625 -0.921875 4.148438 -0.582031 3.921875 -0.34375 C 3.691406 -0.113281 3.351562 0 2.90625 0 L 1.84375 0 C 1.394531 0 1.050781 -0.113281 0.8125 -0.34375 C 0.582031 -0.582031 0.46875 -0.921875 0.46875 -1.359375 L 0.46875 -7.390625 C 0.46875 -7.441406 0.488281 -7.488281 0.53125 -7.53125 C 0.570312 -7.570312 0.613281 -7.59375 0.65625 -7.59375 L 1.578125 -7.59375 C 1.628906 -7.59375 1.671875 -7.570312 1.703125 -7.53125 C 1.742188 -7.488281 1.765625 -7.441406 1.765625 -7.390625 L 1.765625 -1.625 C 1.765625 -1.375 1.890625 -1.25 2.140625 -1.25 L 2.640625 -1.25 C 2.890625 -1.25 3.015625 -1.375 3.015625 -1.625 L 3.015625 -7.390625 C 3.015625 -7.441406 3.03125 -7.488281 3.0625 -7.53125 C 3.101562 -7.570312 3.148438 -7.59375 3.203125 -7.59375 Z M 3.203125 -7.59375 "/></g></g><g style="fill:#b476e5;fill-opacity:1;"><g transform="translate(95.245188, 17.78226)"><path style="stroke:none" d="M 4.265625 -7.4375 L 4.265625 -6.484375 C 4.265625 -6.378906 4.210938 -6.328125 4.109375 -6.328125 L 1.734375 -6.328125 L 1.734375 -4.421875 L 3.546875 -4.421875 C 3.648438 -4.421875 3.703125 -4.367188 3.703125 -4.265625 L 3.703125 -3.328125 C 3.703125 -3.222656 3.648438 -3.171875 3.546875 -3.171875 L 1.734375 -3.171875 L 1.734375 -1.25 L 4.109375 -1.25 C 4.210938 -1.25 4.265625 -1.195312 4.265625 -1.09375 L 4.265625 -0.15625 C 4.265625 -0.0507812 4.210938 0 4.109375 0 L 0.609375 0 C 0.515625 0 0.46875 -0.0507812 0.46875 -0.15625 L 0.46875 -7.4375 C 0.46875 -7.539062 0.515625 -7.59375 0.609375 -7.59375 L 4.109375 -7.59375 C 4.210938 -7.59375 4.265625 -7.539062 4.265625 -7.4375 Z M 4.265625 -7.4375 "/></g></g><g style="fill:#b476e5;fill-opacity:1;"><g transform="translate(100.160174, 17.78226)"><path style="stroke:none" d=""/></g></g><g style="fill:#b476e5;fill-opacity:1;"><g transform="translate(102.717242, 17.78226)"><path style="stroke:none" d="M 0.46875 -0.15625 L 0.46875 -7.4375 C 0.46875 -7.539062 0.519531 -7.59375 0.625 -7.59375 L 2.90625 -7.59375 C 3.351562 -7.59375 3.691406 -7.472656 3.921875 -7.234375 C 4.148438 -7.003906 4.265625 -6.664062 4.265625 -6.21875 L 4.265625 -1.359375 C 4.265625 -0.921875 4.148438 -0.582031 3.921875 -0.34375 C 3.691406 -0.113281 3.351562 0 2.90625 0 L 0.625 0 C 0.519531 0 0.46875 -0.0507812 0.46875 -0.15625 Z M 1.765625 -1.25 L 2.640625 -1.25 C 2.890625 -1.25 3.015625 -1.375 3.015625 -1.625 L 3.015625 -5.953125 C 3.015625 -6.203125 2.890625 -6.328125 2.640625 -6.328125 L 1.765625 -6.328125 Z M 1.765625 -1.25 "/></g></g><g style="fill:#b476e5;fill-opacity:1;"><g transform="translate(107.641698, 17.78226)"><path style="stroke:none" d="M 3.203125 -7.59375 L 4.078125 -7.59375 C 4.128906 -7.59375 4.171875 -7.570312 4.203125 -7.53125 C 4.242188 -7.488281 4.265625 -7.441406 4.265625 -7.390625 L 4.265625 -1.359375 C 4.265625 -0.921875 4.148438 -0.582031 3.921875 -0.34375 C 3.691406 -0.113281 3.351562 0 2.90625 0 L 1.84375 0 C 1.394531 0 1.050781 -0.113281 0.8125 -0.34375 C 0.582031 -0.582031 0.46875 -0.921875 0.46875 -1.359375 L 0.46875 -7.390625 C 0.46875 -7.441406 0.488281 -7.488281 0.53125 -7.53125 C 0.570312 -7.570312 0.613281 -7.59375 0.65625 -7.59375 L 1.578125 -7.59375 C 1.628906 -7.59375 1.671875 -7.570312 1.703125 -7.53125 C 1.742188 -7.488281 1.765625 -7.441406 1.765625 -7.390625 L 1.765625 -1.625 C 1.765625 -1.375 1.890625 -1.25 2.140625 -1.25 L 2.640625 -1.25 C 2.890625 -1.25 3.015625 -1.375 3.015625 -1.625 L 3.015625 -7.390625 C 3.015625 -7.441406 3.03125 -7.488281 3.0625 -7.53125 C 3.101562 -7.570312 3.148438 -7.59375 3.203125 -7.59375 Z M 3.203125 -7.59375 "/></g></g><g style="fill:#b476e5;fill-opacity:1;"><g transform="translate(112.566153, 17.78226)"><path style="stroke:none" d="M 4.375 -6.21875 L 4.375 -3.90625 C 4.375 -3.269531 4.144531 -2.851562 3.6875 -2.65625 L 4.328125 -0.171875 C 4.359375 -0.0546875 4.316406 0 4.203125 0 L 3.21875 0 C 3.125 0 3.066406 -0.0390625 3.046875 -0.125 L 2.421875 -2.546875 L 1.765625 -2.546875 L 1.765625 -0.15625 C 1.765625 -0.0507812 1.710938 0 1.609375 0 L 0.625 0 C 0.519531 0 0.46875 -0.0507812 0.46875 -0.15625 L 0.46875 -7.4375 C 0.46875 -7.539062 0.519531 -7.59375 0.625 -7.59375 L 3 -7.59375 C 3.457031 -7.59375 3.800781 -7.472656 4.03125 -7.234375 C 4.257812 -7.003906 4.375 -6.664062 4.375 -6.21875 Z M 1.765625 -3.796875 L 2.703125 -3.796875 C 2.953125 -3.796875 3.078125 -3.921875 3.078125 -4.171875 L 3.078125 -5.953125 C 3.078125 -6.203125 2.953125 -6.328125 2.703125 -6.328125 L 1.765625 -6.328125 Z M 1.765625 -3.796875 "/></g></g><g clip-rule="nonzero" clip-path="url(#113acf09d3)"><path style=" stroke:none;fill-rule:nonzero;fill:#b476e5;fill-opacity:1;" d="M 4.429688 4.703125 C 3.613281 4.703125 2.953125 5.363281 2.953125 6.175781 L 2.953125 22.824219 C 2.953125 23.636719 3.613281 24.300781 4.429688 24.300781 L 15.636719 24.300781 C 16.453125 24.300781 17.113281 23.636719 17.113281 22.824219 L 17.113281 6.175781 C 17.113281 5.363281 16.453125 4.703125 15.636719 4.703125 Z M 16.09375 22.824219 C 16.09375 23.074219 15.890625 23.277344 15.636719 23.277344 L 4.429688 23.277344 C 4.175781 23.277344 3.972656 23.074219 3.972656 22.824219 L 3.972656 6.175781 C 3.972656 5.925781 4.175781 5.722656 4.429688 5.722656 L 15.636719 5.722656 C 15.890625 5.722656 16.09375 5.925781 16.09375 6.175781 Z M 16.09375 22.824219 "/></g><path style=" stroke:none;fill-rule:nonzero;fill:#b476e5;fill-opacity:1;" d="M 10.035156 10.835938 C 9.46875 10.835938 9.007812 11.292969 9.007812 11.859375 C 9.007812 12.425781 9.46875 12.882812 10.035156 12.882812 C 10.597656 12.882812 11.058594 12.425781 11.058594 11.859375 C 11.058594 11.292969 10.597656 10.835938 10.035156 10.835938 Z M 10.035156 12.375 C 9.75 12.375 9.519531 12.144531 9.519531 11.859375 C 9.519531 11.574219 9.75 11.34375 10.035156 11.34375 C 10.316406 11.34375 10.546875 11.574219 10.546875 11.859375 C 10.546875 12.144531 10.316406 12.375 10.035156 12.375 Z M 10.035156 12.375 "/><path style=" stroke:none;fill-rule:nonzero;fill:#b476e5;fill-opacity:1;" d="M 5.230469 6.472656 C 5.230469 6.585938 5.191406 6.679688 5.109375 6.757812 C 5.03125 6.835938 4.9375 6.875 4.828125 6.875 C 4.714844 6.875 4.621094 6.835938 4.542969 6.757812 C 4.464844 6.679688 4.425781 6.585938 4.425781 6.472656 C 4.425781 6.363281 4.464844 6.269531 4.542969 6.191406 C 4.621094 6.113281 4.714844 6.070312 4.828125 6.070312 C 4.9375 6.070312 5.03125 6.113281 5.109375 6.191406 C 5.191406 6.269531 5.230469 6.363281 5.230469 6.472656 Z M 5.230469 6.472656 "/><path style=" stroke:none;fill-rule:nonzero;fill:#b476e5;fill-opacity:1;" d="M 15.238281 6.070312 C 15.019531 6.070312 14.835938 6.253906 14.835938 6.472656 C 14.835938 6.695312 15.019531 6.875 15.238281 6.875 C 15.460938 6.875 15.640625 6.695312 15.640625 6.472656 C 15.640625 6.253906 15.460938 6.070312 15.238281 6.070312 Z M 15.238281 6.070312 "/><path style=" stroke:none;fill-rule:nonzero;fill:#b476e5;fill-opacity:1;" d="M 4.828125 15.824219 C 5.046875 15.824219 5.230469 15.644531 5.230469 15.421875 C 5.230469 15.203125 5.046875 15.023438 4.828125 15.023438 C 4.605469 15.023438 4.425781 15.203125 4.425781 15.421875 C 4.425781 15.644531 4.605469 15.824219 4.828125 15.824219 Z M 4.828125 15.824219 "/><path style=" stroke:none;fill-rule:nonzero;fill:#b476e5;fill-opacity:1;" d="M 15.238281 15.023438 C 15.019531 15.023438 14.835938 15.203125 14.835938 15.421875 C 14.835938 15.644531 15.019531 15.824219 15.238281 15.824219 C 15.460938 15.824219 15.640625 15.644531 15.640625 15.421875 C 15.640625 15.203125 15.460938 15.023438 15.238281 15.023438 Z M 15.238281 15.023438 "/><path style=" stroke:none;fill-rule:nonzero;fill:#b476e5;fill-opacity:1;" d="M 4.828125 22.101562 C 4.605469 22.101562 4.425781 22.285156 4.425781 22.503906 C 4.425781 22.726562 4.605469 22.90625 4.828125 22.90625 C 5.046875 22.90625 5.230469 22.726562 5.230469 22.503906 C 5.230469 22.285156 5.046875 22.101562 4.828125 22.101562 Z M 4.828125 22.101562 "/><path style=" stroke:none;fill-rule:nonzero;fill:#b476e5;fill-opacity:1;" d="M 15.238281 22.101562 C 15.019531 22.101562 14.835938 22.285156 14.835938 22.503906 C 14.835938 22.726562 15.019531 22.90625 15.238281 22.90625 C 15.460938 22.90625 15.640625 22.726562 15.640625 22.503906 C 15.640625 22.285156 15.460938 22.101562 15.238281 22.101562 Z M 15.238281 22.101562 "/><path style=" stroke:none;fill-rule:nonzero;fill:#b476e5;fill-opacity:1;" d="M 7.214844 18.109375 L 7.214844 17.855469 L 4.570312 17.855469 L 4.570312 21.359375 L 5.839844 22.628906 L 9.34375 22.628906 L 9.34375 19.984375 L 9.089844 19.984375 C 8.054688 19.984375 7.214844 19.144531 7.214844 18.109375 Z M 8.835938 22.117188 L 6.050781 22.117188 L 5.082031 21.148438 L 5.082031 18.363281 L 6.714844 18.363281 C 6.835938 19.476562 7.722656 20.363281 8.835938 20.484375 Z M 8.835938 22.117188 "/><path style=" stroke:none;fill-rule:nonzero;fill:#b476e5;fill-opacity:1;" d="M 15.4375 19.984375 L 10.667969 19.984375 L 10.667969 22.628906 L 14.222656 22.628906 L 15.4375 21.414062 Z M 14.929688 21.203125 L 14.011719 22.117188 L 11.179688 22.117188 L 11.179688 20.496094 L 14.929688 20.496094 Z M 14.929688 21.203125 "/><path style=" stroke:none;fill-rule:nonzero;fill:#b476e5;fill-opacity:1;" d="M 15.25 11.835938 C 15.25 8.960938 12.910156 6.621094 10.035156 6.621094 C 7.15625 6.621094 4.816406 8.960938 4.816406 11.835938 C 4.816406 14.230469 6.433594 16.25 8.632812 16.863281 L 8.109375 17.410156 L 8.105469 17.414062 C 8.074219 17.445312 8.042969 17.476562 8.019531 17.511719 C 7.621094 18.015625 7.683594 18.730469 8.160156 19.113281 C 8.351562 19.261719 8.582031 19.34375 8.828125 19.34375 C 9.1875 19.34375 9.523438 19.175781 9.753906 18.886719 C 9.78125 18.855469 9.804688 18.820312 9.824219 18.789062 C 9.828125 18.785156 9.828125 18.785156 9.828125 18.78125 L 11.019531 16.960938 C 13.425781 16.496094 15.25 14.375 15.25 11.835938 Z M 5.328125 11.835938 C 5.328125 9.242188 7.4375 7.132812 10.035156 7.132812 C 12.628906 7.132812 14.738281 9.242188 14.738281 11.835938 C 14.738281 13.945312 13.34375 15.734375 11.429688 16.332031 L 12.648438 14.46875 C 12.648438 14.464844 12.652344 14.460938 12.652344 14.460938 C 12.828125 14.175781 12.773438 13.816406 12.523438 13.617188 C 12.417969 13.535156 12.285156 13.488281 12.148438 13.488281 C 11.972656 13.488281 11.804688 13.558594 11.675781 13.6875 L 11.664062 13.699219 L 9.039062 16.4375 C 6.921875 15.980469 5.328125 14.089844 5.328125 11.835938 Z M 9.398438 18.511719 C 9.382812 18.53125 9.367188 18.550781 9.351562 18.570312 C 9.222656 18.738281 9.03125 18.832031 8.828125 18.832031 C 8.699219 18.832031 8.578125 18.792969 8.476562 18.710938 C 8.222656 18.507812 8.195312 18.109375 8.417969 17.828125 C 8.433594 17.808594 8.449219 17.789062 8.46875 17.769531 C 8.472656 17.765625 8.476562 17.765625 8.480469 17.761719 L 12.035156 14.050781 C 12.035156 14.050781 12.039062 14.046875 12.039062 14.046875 C 12.070312 14.015625 12.109375 14 12.148438 14 C 12.171875 14 12.191406 14.003906 12.207031 14.019531 C 12.253906 14.054688 12.257812 14.128906 12.21875 14.191406 L 9.402344 18.503906 Z M 9.398438 18.511719 "/></g></svg>