<svg xmlns="http://www.w3.org/2000/svg" xmlns:xlink="http://www.w3.org/1999/xlink" width="160" zoomAndPan="magnify" viewBox="0 0 120 30.000001" height="40" preserveAspectRatio="xMidYMid meet" version="1.2"><defs><clipPath id="3a04c6f0e4"><path d="M 3.085938 5 L 23.410156 5 L 23.410156 23.816406 L 3.085938 23.816406 Z M 3.085938 5 "/></clipPath></defs><g id="cef9150160"><g style="fill:#b476e5;fill-opacity:1;"><g transform="translate(24.600372, 17.78226)"><path style="stroke:none" d="M 4.359375 -7.578125 L 4.359375 -6.609375 C 4.359375 -6.503906 4.304688 -6.453125 4.203125 -6.453125 L 1.796875 -6.453125 L 1.796875 -4.515625 L 3.625 -4.515625 C 3.71875 -4.515625 3.765625 -4.460938 3.765625 -4.359375 L 3.765625 -3.390625 C 3.765625 -3.285156 3.71875 -3.234375 3.625 -3.234375 L 1.796875 -3.234375 L 1.796875 -0.15625 C 1.796875 -0.0507812 1.742188 0 1.640625 0 L 0.640625 0 C 0.535156 0 0.484375 -0.0507812 0.484375 -0.15625 L 0.484375 -7.578125 C 0.484375 -7.679688 0.535156 -7.734375 0.640625 -7.734375 L 4.203125 -7.734375 C 4.304688 -7.734375 4.359375 -7.679688 4.359375 -7.578125 Z M 4.359375 -7.578125 "/></g></g><g style="fill:#b476e5;fill-opacity:1;"><g transform="translate(29.630715, 17.78226)"><path style="stroke:none" d="M 0.484375 -1.390625 L 0.484375 -6.34375 C 0.484375 -6.800781 0.601562 -7.144531 0.84375 -7.375 C 1.082031 -7.613281 1.425781 -7.734375 1.875 -7.734375 L 2.953125 -7.734375 C 3.410156 -7.734375 3.757812 -7.613281 4 -7.375 C 4.238281 -7.144531 4.359375 -6.800781 4.359375 -6.34375 L 4.359375 -1.390625 C 4.359375 -0.941406 4.238281 -0.597656 4 -0.359375 C 3.757812 -0.117188 3.410156 0 2.953125 0 L 1.875 0 C 1.425781 0 1.082031 -0.117188 0.84375 -0.359375 C 0.601562 -0.597656 0.484375 -0.941406 0.484375 -1.390625 Z M 2.15625 -1.25 L 2.71875 -1.25 C 2.976562 -1.25 3.109375 -1.378906 3.109375 -1.640625 L 3.109375 -6.109375 C 3.109375 -6.359375 2.976562 -6.484375 2.71875 -6.484375 L 2.15625 -6.484375 C 1.894531 -6.484375 1.765625 -6.359375 1.765625 -6.109375 L 1.765625 -1.640625 C 1.765625 -1.378906 1.894531 -1.25 2.15625 -1.25 Z M 2.15625 -1.25 "/></g></g><g style="fill:#b476e5;fill-opacity:1;"><g transform="translate(34.661058, 17.78226)"><path style="stroke:none" d="M 4.453125 -6.34375 L 4.453125 -3.984375 C 4.453125 -3.335938 4.21875 -2.910156 3.75 -2.703125 L 4.421875 -0.171875 C 4.453125 -0.0546875 4.40625 0 4.28125 0 L 3.28125 0 C 3.1875 0 3.128906 -0.046875 3.109375 -0.140625 L 2.46875 -2.59375 L 1.796875 -2.59375 L 1.796875 -0.15625 C 1.796875 -0.0507812 1.742188 0 1.640625 0 L 0.640625 0 C 0.535156 0 0.484375 -0.0507812 0.484375 -0.15625 L 0.484375 -7.578125 C 0.484375 -7.679688 0.535156 -7.734375 0.640625 -7.734375 L 3.0625 -7.734375 C 3.519531 -7.734375 3.863281 -7.613281 4.09375 -7.375 C 4.332031 -7.144531 4.453125 -6.800781 4.453125 -6.34375 Z M 1.796875 -3.875 L 2.75 -3.875 C 3.007812 -3.875 3.140625 -4 3.140625 -4.25 L 3.140625 -6.078125 C 3.140625 -6.328125 3.007812 -6.453125 2.75 -6.453125 L 1.796875 -6.453125 Z M 1.796875 -3.875 "/></g></g><g style="fill:#b476e5;fill-opacity:1;"><g transform="translate(39.79782, 17.78226)"><path style="stroke:none" d="M 4.53125 -7.734375 L 5.796875 -7.734375 C 5.929688 -7.734375 6 -7.671875 6 -7.546875 L 6 -0.1875 C 6 -0.0625 5.929688 0 5.796875 0 L 4.90625 0 C 4.769531 0 4.703125 -0.0625 4.703125 -0.1875 L 4.703125 -4.546875 L 4.640625 -4.546875 L 3.6875 -0.171875 C 3.65625 -0.0546875 3.582031 0 3.46875 0 L 3 0 C 2.882812 0 2.8125 -0.0546875 2.78125 -0.171875 L 1.828125 -4.546875 L 1.765625 -4.546875 L 1.765625 -0.1875 C 1.765625 -0.0625 1.695312 0 1.5625 0 L 0.671875 0 C 0.546875 0 0.484375 -0.0625 0.484375 -0.1875 L 0.484375 -7.546875 C 0.484375 -7.671875 0.546875 -7.734375 0.671875 -7.734375 L 1.953125 -7.734375 C 2.066406 -7.734375 2.140625 -7.675781 2.171875 -7.5625 L 3.234375 -2.75 L 4.3125 -7.5625 C 4.34375 -7.675781 4.414062 -7.734375 4.53125 -7.734375 Z M 4.53125 -7.734375 "/></g></g><g style="fill:#b476e5;fill-opacity:1;"><g transform="translate(46.472679, 17.78226)"><path style="stroke:none" d="M 5.140625 0 L 4.125 0 C 4.039062 0 3.988281 -0.046875 3.96875 -0.140625 L 3.6875 -1.546875 L 1.96875 -1.546875 L 1.71875 -0.140625 C 1.695312 -0.046875 1.644531 0 1.5625 0 L 0.515625 0 C 0.398438 0 0.359375 -0.0546875 0.390625 -0.171875 L 2 -7.609375 C 2.019531 -7.691406 2.078125 -7.734375 2.171875 -7.734375 L 3.515625 -7.734375 C 3.597656 -7.734375 3.648438 -7.691406 3.671875 -7.609375 L 5.28125 -0.171875 C 5.300781 -0.0546875 5.253906 0 5.140625 0 Z M 3.453125 -2.671875 L 2.828125 -6.046875 L 2.21875 -2.671875 Z M 3.453125 -2.671875 "/></g></g><g style="fill:#b476e5;fill-opacity:1;"><g transform="translate(52.334959, 17.78226)"><path style="stroke:none" d="M 0.4375 -7.734375 L 4 -7.734375 C 4.101562 -7.734375 4.15625 -7.679688 4.15625 -7.578125 L 4.15625 -6.609375 C 4.15625 -6.503906 4.101562 -6.453125 4 -6.453125 L 2.875 -6.453125 L 2.875 -0.15625 C 2.875 -0.0507812 2.828125 0 2.734375 0 L 1.71875 0 C 1.613281 0 1.5625 -0.0507812 1.5625 -0.15625 L 1.5625 -6.453125 L 0.4375 -6.453125 C 0.34375 -6.453125 0.296875 -6.503906 0.296875 -6.609375 L 0.296875 -7.578125 C 0.296875 -7.679688 0.34375 -7.734375 0.4375 -7.734375 Z M 0.4375 -7.734375 "/></g></g><g style="fill:#b476e5;fill-opacity:1;"><g transform="translate(56.978366, 17.78226)"><path style="stroke:none" d="M 0.640625 -7.734375 L 1.640625 -7.734375 C 1.742188 -7.734375 1.796875 -7.679688 1.796875 -7.578125 L 1.796875 -0.15625 C 1.796875 -0.0507812 1.742188 0 1.640625 0 L 0.640625 0 C 0.535156 0 0.484375 -0.0507812 0.484375 -0.15625 L 0.484375 -7.578125 C 0.484375 -7.679688 0.535156 -7.734375 0.640625 -7.734375 Z M 0.640625 -7.734375 "/></g></g><g style="fill:#b476e5;fill-opacity:1;"><g transform="translate(59.454886, 17.78226)"><path style="stroke:none" d="M 0.484375 -1.390625 L 0.484375 -6.34375 C 0.484375 -6.800781 0.601562 -7.144531 0.84375 -7.375 C 1.082031 -7.613281 1.425781 -7.734375 1.875 -7.734375 L 2.953125 -7.734375 C 3.410156 -7.734375 3.757812 -7.613281 4 -7.375 C 4.238281 -7.144531 4.359375 -6.800781 4.359375 -6.34375 L 4.359375 -1.390625 C 4.359375 -0.941406 4.238281 -0.597656 4 -0.359375 C 3.757812 -0.117188 3.410156 0 2.953125 0 L 1.875 0 C 1.425781 0 1.082031 -0.117188 0.84375 -0.359375 C 0.601562 -0.597656 0.484375 -0.941406 0.484375 -1.390625 Z M 2.15625 -1.25 L 2.71875 -1.25 C 2.976562 -1.25 3.109375 -1.378906 3.109375 -1.640625 L 3.109375 -6.109375 C 3.109375 -6.359375 2.976562 -6.484375 2.71875 -6.484375 L 2.15625 -6.484375 C 1.894531 -6.484375 1.765625 -6.359375 1.765625 -6.109375 L 1.765625 -1.640625 C 1.765625 -1.378906 1.894531 -1.25 2.15625 -1.25 Z M 2.15625 -1.25 "/></g></g><g style="fill:#b476e5;fill-opacity:1;"><g transform="translate(64.485229, 17.78226)"><path style="stroke:none" d="M 3.453125 -7.734375 L 4.453125 -7.734375 C 4.554688 -7.734375 4.609375 -7.679688 4.609375 -7.578125 L 4.609375 -0.15625 C 4.609375 -0.0507812 4.554688 0 4.453125 0 L 3.5 0 C 3.40625 0 3.347656 -0.0390625 3.328125 -0.125 L 1.84375 -4.25 L 1.796875 -4.25 L 1.796875 -0.15625 C 1.796875 -0.0507812 1.742188 0 1.640625 0 L 0.640625 0 C 0.535156 0 0.484375 -0.0507812 0.484375 -0.15625 L 0.484375 -7.578125 C 0.484375 -7.679688 0.535156 -7.734375 0.640625 -7.734375 L 1.59375 -7.734375 C 1.6875 -7.734375 1.742188 -7.691406 1.765625 -7.609375 L 3.234375 -3.5 L 3.296875 -3.5 L 3.296875 -7.578125 C 3.296875 -7.679688 3.347656 -7.734375 3.453125 -7.734375 Z M 3.453125 -7.734375 "/></g></g><g style="fill:#b476e5;fill-opacity:1;"><g transform="translate(69.776763, 17.78226)"><path style="stroke:none" d=""/></g></g><g style="fill:#b476e5;fill-opacity:1;"><g transform="translate(72.388707, 17.78226)"><path style="stroke:none" d="M 3.453125 -7.734375 L 4.453125 -7.734375 C 4.554688 -7.734375 4.609375 -7.679688 4.609375 -7.578125 L 4.609375 -0.15625 C 4.609375 -0.0507812 4.554688 0 4.453125 0 L 3.5 0 C 3.40625 0 3.347656 -0.0390625 3.328125 -0.125 L 1.84375 -4.25 L 1.796875 -4.25 L 1.796875 -0.15625 C 1.796875 -0.0507812 1.742188 0 1.640625 0 L 0.640625 0 C 0.535156 0 0.484375 -0.0507812 0.484375 -0.15625 L 0.484375 -7.578125 C 0.484375 -7.679688 0.535156 -7.734375 0.640625 -7.734375 L 1.59375 -7.734375 C 1.6875 -7.734375 1.742188 -7.691406 1.765625 -7.609375 L 3.234375 -3.5 L 3.296875 -3.5 L 3.296875 -7.578125 C 3.296875 -7.679688 3.347656 -7.734375 3.453125 -7.734375 Z M 3.453125 -7.734375 "/></g></g><g style="fill:#b476e5;fill-opacity:1;"><g transform="translate(77.680241, 17.78226)"><path style="stroke:none" d="M 3.265625 -7.734375 L 4.15625 -7.734375 C 4.207031 -7.734375 4.253906 -7.710938 4.296875 -7.671875 C 4.335938 -7.640625 4.359375 -7.597656 4.359375 -7.546875 L 4.359375 -1.390625 C 4.359375 -0.941406 4.238281 -0.597656 4 -0.359375 C 3.757812 -0.117188 3.410156 0 2.953125 0 L 1.875 0 C 1.425781 0 1.082031 -0.117188 0.84375 -0.359375 C 0.601562 -0.597656 0.484375 -0.941406 0.484375 -1.390625 L 0.484375 -7.546875 C 0.484375 -7.597656 0.5 -7.640625 0.53125 -7.671875 C 0.570312 -7.710938 0.617188 -7.734375 0.671875 -7.734375 L 1.609375 -7.734375 C 1.660156 -7.734375 1.703125 -7.710938 1.734375 -7.671875 C 1.773438 -7.640625 1.796875 -7.597656 1.796875 -7.546875 L 1.796875 -1.65625 C 1.796875 -1.40625 1.925781 -1.28125 2.1875 -1.28125 L 2.6875 -1.28125 C 2.945312 -1.28125 3.078125 -1.40625 3.078125 -1.65625 L 3.078125 -7.546875 C 3.078125 -7.597656 3.09375 -7.640625 3.125 -7.671875 C 3.164062 -7.710938 3.210938 -7.734375 3.265625 -7.734375 Z M 3.265625 -7.734375 "/></g></g><g style="fill:#b476e5;fill-opacity:1;"><g transform="translate(82.710583, 17.78226)"><path style="stroke:none" d="M 4.53125 -7.734375 L 5.796875 -7.734375 C 5.929688 -7.734375 6 -7.671875 6 -7.546875 L 6 -0.1875 C 6 -0.0625 5.929688 0 5.796875 0 L 4.90625 0 C 4.769531 0 4.703125 -0.0625 4.703125 -0.1875 L 4.703125 -4.546875 L 4.640625 -4.546875 L 3.6875 -0.171875 C 3.65625 -0.0546875 3.582031 0 3.46875 0 L 3 0 C 2.882812 0 2.8125 -0.0546875 2.78125 -0.171875 L 1.828125 -4.546875 L 1.765625 -4.546875 L 1.765625 -0.1875 C 1.765625 -0.0625 1.695312 0 1.5625 0 L 0.671875 0 C 0.546875 0 0.484375 -0.0625 0.484375 -0.1875 L 0.484375 -7.546875 C 0.484375 -7.671875 0.546875 -7.734375 0.671875 -7.734375 L 1.953125 -7.734375 C 2.066406 -7.734375 2.140625 -7.675781 2.171875 -7.5625 L 3.234375 -2.75 L 4.3125 -7.5625 C 4.34375 -7.675781 4.414062 -7.734375 4.53125 -7.734375 Z M 4.53125 -7.734375 "/></g></g><g style="fill:#b476e5;fill-opacity:1;"><g transform="translate(89.385442, 17.78226)"><path style="stroke:none" d="M 4.34375 -7.578125 L 4.34375 -6.609375 C 4.34375 -6.503906 4.289062 -6.453125 4.1875 -6.453125 L 1.765625 -6.453125 L 1.765625 -4.515625 L 3.625 -4.515625 C 3.71875 -4.515625 3.765625 -4.460938 3.765625 -4.359375 L 3.765625 -3.390625 C 3.765625 -3.285156 3.71875 -3.234375 3.625 -3.234375 L 1.765625 -3.234375 L 1.765625 -1.28125 L 4.1875 -1.28125 C 4.289062 -1.28125 4.34375 -1.226562 4.34375 -1.125 L 4.34375 -0.15625 C 4.34375 -0.0507812 4.289062 0 4.1875 0 L 0.625 0 C 0.53125 0 0.484375 -0.0507812 0.484375 -0.15625 L 0.484375 -7.578125 C 0.484375 -7.679688 0.53125 -7.734375 0.625 -7.734375 L 4.1875 -7.734375 C 4.289062 -7.734375 4.34375 -7.679688 4.34375 -7.578125 Z M 4.34375 -7.578125 "/></g></g><g style="fill:#b476e5;fill-opacity:1;"><g transform="translate(94.406117, 17.78226)"><path style="stroke:none" d="M 4.453125 -6.34375 L 4.453125 -3.984375 C 4.453125 -3.335938 4.21875 -2.910156 3.75 -2.703125 L 4.421875 -0.171875 C 4.453125 -0.0546875 4.40625 0 4.28125 0 L 3.28125 0 C 3.1875 0 3.128906 -0.046875 3.109375 -0.140625 L 2.46875 -2.59375 L 1.796875 -2.59375 L 1.796875 -0.15625 C 1.796875 -0.0507812 1.742188 0 1.640625 0 L 0.640625 0 C 0.535156 0 0.484375 -0.0507812 0.484375 -0.15625 L 0.484375 -7.578125 C 0.484375 -7.679688 0.535156 -7.734375 0.640625 -7.734375 L 3.0625 -7.734375 C 3.519531 -7.734375 3.863281 -7.613281 4.09375 -7.375 C 4.332031 -7.144531 4.453125 -6.800781 4.453125 -6.34375 Z M 1.796875 -3.875 L 2.75 -3.875 C 3.007812 -3.875 3.140625 -4 3.140625 -4.25 L 3.140625 -6.078125 C 3.140625 -6.328125 3.007812 -6.453125 2.75 -6.453125 L 1.796875 -6.453125 Z M 1.796875 -3.875 "/></g></g><g style="fill:#b476e5;fill-opacity:1;"><g transform="translate(99.542878, 17.78226)"><path style="stroke:none" d="M 0.640625 -7.734375 L 1.640625 -7.734375 C 1.742188 -7.734375 1.796875 -7.679688 1.796875 -7.578125 L 1.796875 -0.15625 C 1.796875 -0.0507812 1.742188 0 1.640625 0 L 0.640625 0 C 0.535156 0 0.484375 -0.0507812 0.484375 -0.15625 L 0.484375 -7.578125 C 0.484375 -7.679688 0.535156 -7.734375 0.640625 -7.734375 Z M 0.640625 -7.734375 "/></g></g><g style="fill:#b476e5;fill-opacity:1;"><g transform="translate(102.019398, 17.78226)"><path style="stroke:none" d="M 4.359375 -6.34375 L 4.359375 -1.390625 C 4.359375 -0.773438 4.144531 -0.363281 3.71875 -0.15625 L 4.109375 0.671875 C 4.140625 0.722656 4.132812 0.765625 4.09375 0.796875 C 4.0625 0.828125 4.019531 0.84375 3.96875 0.84375 L 2.96875 0.84375 C 2.925781 0.84375 2.890625 0.832031 2.859375 0.8125 C 2.835938 0.789062 2.820312 0.757812 2.8125 0.71875 L 2.46875 0 L 1.875 0 C 1.425781 0 1.082031 -0.117188 0.84375 -0.359375 C 0.601562 -0.597656 0.484375 -0.941406 0.484375 -1.390625 L 0.484375 -6.34375 C 0.484375 -6.800781 0.601562 -7.144531 0.84375 -7.375 C 1.082031 -7.613281 1.425781 -7.734375 1.875 -7.734375 L 2.953125 -7.734375 C 3.410156 -7.734375 3.757812 -7.613281 4 -7.375 C 4.238281 -7.144531 4.359375 -6.800781 4.359375 -6.34375 Z M 1.796875 -6.078125 L 1.796875 -1.65625 C 1.796875 -1.40625 1.925781 -1.28125 2.1875 -1.28125 L 2.6875 -1.28125 C 2.945312 -1.28125 3.078125 -1.40625 3.078125 -1.65625 L 3.078125 -6.078125 C 3.078125 -6.328125 2.945312 -6.453125 2.6875 -6.453125 L 2.1875 -6.453125 C 1.925781 -6.453125 1.796875 -6.328125 1.796875 -6.078125 Z M 1.796875 -6.078125 "/></g></g><g style="fill:#b476e5;fill-opacity:1;"><g transform="translate(107.049741, 17.78226)"><path style="stroke:none" d="M 3.265625 -7.734375 L 4.15625 -7.734375 C 4.207031 -7.734375 4.253906 -7.710938 4.296875 -7.671875 C 4.335938 -7.640625 4.359375 -7.597656 4.359375 -7.546875 L 4.359375 -1.390625 C 4.359375 -0.941406 4.238281 -0.597656 4 -0.359375 C 3.757812 -0.117188 3.410156 0 2.953125 0 L 1.875 0 C 1.425781 0 1.082031 -0.117188 0.84375 -0.359375 C 0.601562 -0.597656 0.484375 -0.941406 0.484375 -1.390625 L 0.484375 -7.546875 C 0.484375 -7.597656 0.5 -7.640625 0.53125 -7.671875 C 0.570312 -7.710938 0.617188 -7.734375 0.671875 -7.734375 L 1.609375 -7.734375 C 1.660156 -7.734375 1.703125 -7.710938 1.734375 -7.671875 C 1.773438 -7.640625 1.796875 -7.597656 1.796875 -7.546875 L 1.796875 -1.65625 C 1.796875 -1.40625 1.925781 -1.28125 2.1875 -1.28125 L 2.6875 -1.28125 C 2.945312 -1.28125 3.078125 -1.40625 3.078125 -1.65625 L 3.078125 -7.546875 C 3.078125 -7.597656 3.09375 -7.640625 3.125 -7.671875 C 3.164062 -7.710938 3.210938 -7.734375 3.265625 -7.734375 Z M 3.265625 -7.734375 "/></g></g><g style="fill:#b476e5;fill-opacity:1;"><g transform="translate(112.080084, 17.78226)"><path style="stroke:none" d="M 4.34375 -7.578125 L 4.34375 -6.609375 C 4.34375 -6.503906 4.289062 -6.453125 4.1875 -6.453125 L 1.765625 -6.453125 L 1.765625 -4.515625 L 3.625 -4.515625 C 3.71875 -4.515625 3.765625 -4.460938 3.765625 -4.359375 L 3.765625 -3.390625 C 3.765625 -3.285156 3.71875 -3.234375 3.625 -3.234375 L 1.765625 -3.234375 L 1.765625 -1.28125 L 4.1875 -1.28125 C 4.289062 -1.28125 4.34375 -1.226562 4.34375 -1.125 L 4.34375 -0.15625 C 4.34375 -0.0507812 4.289062 0 4.1875 0 L 0.625 0 C 0.53125 0 0.484375 -0.0507812 0.484375 -0.15625 L 0.484375 -7.578125 C 0.484375 -7.679688 0.53125 -7.734375 0.625 -7.734375 L 4.1875 -7.734375 C 4.289062 -7.734375 4.34375 -7.679688 4.34375 -7.578125 Z M 4.34375 -7.578125 "/></g></g><g clip-rule="nonzero" clip-path="url(#3a04c6f0e4)"><path style=" stroke:none;fill-rule:evenodd;fill:#b476e5;fill-opacity:1;" d="M 19.957031 12.925781 L 18.308594 12.925781 L 18.308594 15.265625 L 18.839844 15.265625 C 18.996094 15.265625 19.121094 15.390625 19.121094 15.546875 L 19.121094 16.21875 C 19.121094 16.742188 18.695312 17.167969 18.171875 17.167969 L 18.113281 17.167969 L 18.929688 17.988281 C 19.980469 17.253906 21.445312 18.003906 21.445312 19.300781 C 21.445312 20.183594 20.730469 20.902344 19.84375 20.902344 C 18.546875 20.902344 17.796875 19.4375 18.53125 18.386719 L 17.316406 17.167969 L 13.472656 17.167969 L 13.472656 20.480469 C 14.734375 20.707031 15.238281 22.269531 14.320312 23.1875 C 13.695312 23.8125 12.683594 23.8125 12.058594 23.1875 C 11.140625 22.269531 11.644531 20.707031 12.910156 20.480469 L 12.910156 17.167969 L 9.066406 17.167969 L 7.847656 18.386719 C 8.582031 19.4375 7.832031 20.902344 6.535156 20.902344 C 5.652344 20.902344 4.933594 20.183594 4.933594 19.300781 C 4.933594 18.003906 6.398438 17.253906 7.449219 17.988281 L 8.269531 17.167969 L 8.210938 17.167969 C 7.6875 17.167969 7.257812 16.742188 7.257812 16.21875 L 7.257812 15.546875 C 7.257812 15.390625 7.386719 15.265625 7.539062 15.265625 L 8.074219 15.265625 L 8.074219 12.925781 L 6.421875 12.925781 C 6.199219 14.1875 4.632812 14.695312 3.714844 13.777344 C 3.089844 13.152344 3.089844 12.136719 3.714844 11.511719 C 4.632812 10.59375 6.199219 11.101562 6.421875 12.363281 L 8.074219 12.363281 L 8.074219 11.175781 L 6.753906 9.734375 C 6.460938 9.414062 6.421875 8.949219 6.636719 8.589844 L 4.945312 6.742188 C 4.839844 6.628906 4.847656 6.449219 4.964844 6.34375 C 5.078125 6.242188 5.253906 6.25 5.359375 6.363281 L 7.046875 8.210938 C 7.425781 8.027344 7.886719 8.113281 8.179688 8.429688 L 8.796875 9.105469 C 8.871094 9.089844 8.941406 9.078125 9.015625 9.078125 L 11.699219 9.078125 C 11.789062 9.039062 11.878906 9 11.972656 8.964844 C 12.332031 8.835938 12.6875 8.785156 13.09375 8.785156 C 11.800781 8.328125 11.410156 6.660156 12.390625 5.679688 C 13.125 4.945312 14.316406 4.945312 15.050781 5.679688 C 16.035156 6.660156 15.644531 8.328125 14.347656 8.785156 L 14.40625 8.785156 C 14.847656 8.785156 15.261719 8.890625 15.628906 9.078125 L 17.367188 9.078125 C 17.882812 9.078125 18.308594 9.503906 18.308594 10.019531 L 18.308594 12.363281 L 19.957031 12.363281 C 20.183594 11.101562 21.75 10.59375 22.667969 11.511719 C 23.292969 12.136719 23.292969 13.152344 22.667969 13.777344 C 21.75 14.695312 20.183594 14.1875 19.957031 12.925781 Z M 12.910156 14.398438 C 12.878906 14.304688 12.859375 14.203125 12.859375 14.101562 C 12.859375 13.542969 13.289062 13.371094 13.695312 13.171875 L 15.167969 12.445312 L 15.167969 11.585938 C 15.167969 11.429688 15.296875 11.300781 15.453125 11.300781 C 15.605469 11.300781 15.734375 11.429688 15.734375 11.585938 L 15.734375 12.617188 C 15.734375 12.722656 15.675781 12.820312 15.574219 12.871094 L 13.875 13.710938 C 13.710938 13.789062 13.550781 13.867188 13.472656 13.96875 L 13.472656 14.289062 C 13.492188 14.320312 13.515625 14.351562 13.539062 14.378906 C 13.613281 14.453125 13.710938 14.496094 13.820312 14.496094 L 14.054688 14.496094 L 16.523438 13.238281 L 16.523438 11.464844 C 16.523438 10.300781 15.570312 9.347656 14.40625 9.347656 L 13.066406 9.347656 C 12.417969 9.347656 11.867188 9.542969 11.367188 9.953125 L 10.3125 10.816406 C 10.082031 11.003906 9.75 10.980469 9.550781 10.761719 L 7.765625 8.808594 C 7.527344 8.550781 7.078125 8.695312 7.0625 9.0625 C 7.058594 9.167969 7.09375 9.273438 7.167969 9.355469 L 9.109375 11.476562 C 9.53125 11.9375 10.171875 12.066406 10.742188 11.804688 L 11.890625 11.273438 C 12.078125 11.1875 12.289062 11.328125 12.289062 11.527344 L 12.289062 14.496094 L 12.910156 14.496094 Z M 8.636719 11.792969 L 8.636719 15.265625 L 11.609375 15.265625 C 11.699219 15.265625 11.78125 15.308594 11.835938 15.378906 L 12.105469 15.671875 L 14.269531 15.671875 L 14.539062 15.363281 C 14.59375 15.300781 14.671875 15.265625 14.75 15.265625 L 17.742188 15.265625 L 17.742188 10.019531 C 17.742188 9.8125 17.574219 9.644531 17.367188 9.644531 L 16.371094 9.644531 C 16.816406 10.121094 17.089844 10.761719 17.089844 11.464844 L 17.089844 13.410156 C 17.089844 13.511719 17.03125 13.609375 16.933594 13.660156 L 14.261719 15.023438 C 14.21875 15.046875 14.171875 15.058594 14.121094 15.058594 L 12.28125 15.058594 C 11.976562 15.058594 11.726562 14.808594 11.726562 14.503906 L 11.726562 11.96875 L 10.976562 12.316406 C 10.1875 12.679688 9.28125 12.5 8.695312 11.855469 Z M 9.289062 9.644531 L 9.960938 10.378906 L 10.855469 9.644531 Z M 14.652344 6.078125 C 14.140625 5.5625 13.304688 5.5625 12.789062 6.078125 C 12.273438 6.59375 12.273438 7.425781 12.789062 7.941406 C 13.304688 8.457031 14.140625 8.457031 14.652344 7.941406 C 15.167969 7.425781 15.167969 6.59375 14.652344 6.078125 Z M 11.488281 15.828125 L 7.824219 15.828125 L 7.824219 16.21875 C 7.824219 16.429688 7.996094 16.605469 8.210938 16.605469 L 18.171875 16.605469 C 18.382812 16.605469 18.558594 16.429688 18.558594 16.21875 L 18.558594 15.828125 L 14.878906 15.828125 L 14.625 16.121094 C 14.574219 16.191406 14.492188 16.238281 14.398438 16.238281 L 11.980469 16.238281 L 11.980469 16.234375 C 11.90625 16.234375 11.828125 16.207031 11.773438 16.144531 Z M 4.113281 13.378906 C 4.765625 14.03125 5.882812 13.566406 5.882812 12.644531 C 5.882812 11.722656 4.765625 11.261719 4.113281 11.910156 C 3.707031 12.316406 3.707031 12.972656 4.113281 13.378906 Z M 22.269531 11.910156 C 21.617188 11.261719 20.496094 11.722656 20.496094 12.644531 C 20.496094 13.566406 21.617188 14.03125 22.269531 13.378906 C 22.671875 12.972656 22.671875 12.316406 22.269531 11.910156 Z M 7.269531 20.035156 C 7.917969 19.382812 7.457031 18.261719 6.535156 18.261719 C 5.613281 18.261719 5.152344 19.382812 5.800781 20.035156 C 6.207031 20.4375 6.863281 20.4375 7.269531 20.035156 Z M 13.921875 22.789062 C 14.574219 22.136719 14.113281 21.019531 13.191406 21.019531 C 12.269531 21.019531 11.804688 22.136719 12.457031 22.789062 C 12.863281 23.195312 13.519531 23.195312 13.921875 22.789062 Z M 20.882812 19.300781 C 20.882812 18.378906 19.761719 17.914062 19.113281 18.566406 C 18.460938 19.21875 18.921875 20.335938 19.84375 20.335938 C 20.417969 20.335938 20.882812 19.871094 20.882812 19.300781 Z M 20.882812 19.300781 "/></g></g></svg>